<svg xmlns="http://www.w3.org/2000/svg" xmlns:xlink="http://www.w3.org/1999/xlink" width="718" height="406" viewBox="0 0 718 406">
  <defs>
    <filter id="Rectangle_1939" x="0" y="0" width="718" height="406" filterUnits="userSpaceOnUse">
      <feOffset dy="3" input="SourceAlpha"/>
      <feGaussianBlur stdDeviation="3" result="blur"/>
      <feFlood flood-opacity="0.031"/>
      <feComposite operator="in" in2="blur"/>
      <feComposite in="SourceGraphic"/>
    </filter>
  </defs>
  <g id="Group_1091" data-name="Group 1091" transform="translate(-288 -275)">
    <g transform="matrix(1, 0, 0, 1, 288, 275)" filter="url(#Rectangle_1939)">
      <rect id="Rectangle_1939-2" data-name="Rectangle 1939" width="700" height="388" rx="10" transform="translate(9 6)" fill="#fff"/>
    </g>
    <path id="Path_2560" data-name="Path 2560" d="M2504.7,664.914,2557.993,445.7l109.523,78.734,54.4,79.241,54.136,30.113,73.805,31.383Z" transform="translate(-2014 4)" fill="rgba(255,94,0,0.28)" opacity="0.39"/>
    <path id="Path_2562" data-name="Path 2562" d="M2357.7,664.914l101.1-42.3,202.479,3.921,60.642-22.865,141.321,3.374,99.952,57.867Z" transform="translate(-2014.86 3.142)" fill="rgba(14,178,122,0.27)" opacity="0.39"/>
    <path id="Path_2563" data-name="Path 2563" d="M2357.7,664.914l101.1-42.3,202.479,3.921,60.642-22.865,141.321,3.374,99.952,57.867Z" transform="translate(-2013.947 4.254)" fill="none" stroke="#0eb27a" stroke-width="1" opacity="0.39"/>
    <text id="Wed" transform="translate(329 411)" fill="#c7d0e1" font-size="14" font-family="Poppins-Regular, Poppins"><tspan x="0" y="0">Wed</tspan></text>
    <text id="View:" transform="translate(323 328)" font-size="14" font-family="Poppins-Regular, Poppins"><tspan x="0" y="0">View:</tspan></text>
    <text id="BY:" transform="translate(541 328)" font-size="14" font-family="Poppins-Regular, Poppins"><tspan x="0" y="0">BY:</tspan></text>
    <text id="Thu" transform="translate(431 411)" fill="#c7d0e1" font-size="14" font-family="Poppins-Regular, Poppins"><tspan x="0" y="0">Thu</tspan></text>
    <text id="Fri" transform="translate(532 411)" fill="#c7d0e1" font-size="14" font-family="Poppins-Regular, Poppins"><tspan x="0" y="0">Fri</tspan></text>
    <text id="Sat" transform="translate(629 411)" fill="#c7d0e1" font-size="14" font-family="Poppins-Regular, Poppins"><tspan x="0" y="0">Sat</tspan></text>
    <text id="Sun" transform="translate(734 411)" fill="#c7d0e1" font-size="14" font-family="Poppins-Regular, Poppins"><tspan x="0" y="0">Sun</tspan></text>
    <text id="Mon" transform="translate(836 411)" fill="#c7d0e1" font-size="14" font-family="Poppins-Regular, Poppins"><tspan x="0" y="0">Mon</tspan></text>
    <text id="Tue" transform="translate(937 411)" fill="#c7d0e1" font-size="14" font-family="Poppins-Regular, Poppins"><tspan x="0" y="0">Tue</tspan></text>
    <line id="Line_45" data-name="Line 45" y2="236.5" transform="translate(342.5 432.5)" fill="none" stroke="#c7d0e1" stroke-width="1"/>
    <line id="Line_41" data-name="Line 41" y2="236.5" transform="translate(747.5 432.5)" fill="none" stroke="#c7d0e1" stroke-width="1"/>
    <line id="Line_44" data-name="Line 44" y2="236.5" transform="translate(443.5 432.5)" fill="none" stroke="#c7d0e1" stroke-width="1"/>
    <line id="Line_40" data-name="Line 40" y2="236.5" transform="translate(848.5 432.5)" fill="none" stroke="#c7d0e1" stroke-width="1"/>
    <line id="Line_43" data-name="Line 43" y2="236.5" transform="translate(544.5 432.5)" fill="none" stroke="#c7d0e1" stroke-width="1"/>
    <line id="Line_39" data-name="Line 39" y2="236.5" transform="translate(949.5 432.5)" fill="none" stroke="#c7d0e1" stroke-width="1"/>
    <line id="Line_42" data-name="Line 42" y2="236.5" transform="translate(646.5 432.5)" fill="none" stroke="#c7d0e1" stroke-width="1"/>
    <path id="Path_2561" data-name="Path 2561" d="M2343.405,648.252c204,0,178.973-.338,178.973-.338l53.441-220.074s108.26,77.7,108.911,79.326,54.943,79.651,54.943,79.651l53.968,30.235,72.836,31.2" transform="translate(-2031 21)" fill="none" stroke="#ff9100" stroke-width="1"/>
    <g id="Ellipse_22" data-name="Ellipse 22" transform="translate(339 665)" fill="#fff" stroke="#c7d0e1" stroke-width="1">
      <circle cx="4" cy="4" r="4" stroke="none"/>
      <circle cx="4" cy="4" r="3.5" fill="none"/>
    </g>
    <g id="Ellipse_21" data-name="Ellipse 21" transform="translate(394 665)" fill="#fff" stroke="#c7d0e1" stroke-width="1">
      <circle cx="4" cy="4" r="4" stroke="none"/>
      <circle cx="4" cy="4" r="3.5" fill="none"/>
    </g>
    <g id="Ellipse_19" data-name="Ellipse 19" transform="translate(487 665)" fill="#fff" stroke="#c7d0e1" stroke-width="1">
      <circle cx="4" cy="4" r="4" stroke="none"/>
      <circle cx="4" cy="4" r="3.5" fill="none"/>
    </g>
    <g id="Ellipse_20" data-name="Ellipse 20" transform="translate(541 446)" fill="#fff" stroke="#c7d0e1" stroke-width="1">
      <circle cx="4" cy="4" r="4" stroke="none"/>
      <circle cx="4" cy="4" r="3.5" fill="none"/>
    </g>
    <g id="Ellipse_18" data-name="Ellipse 18" transform="translate(649 523)" fill="#fff" stroke="#c7d0e1" stroke-width="1">
      <circle cx="4" cy="4" r="4" stroke="none"/>
      <circle cx="4" cy="4" r="3.5" fill="none"/>
    </g>
    <g id="Ellipse_23" data-name="Ellipse 23" transform="translate(440 623)" fill="#fff" stroke="#c7d0e1" stroke-width="1">
      <circle cx="4" cy="4" r="4" stroke="none"/>
      <circle cx="4" cy="4" r="3.5" fill="none"/>
    </g>
    <g id="Ellipse_24" data-name="Ellipse 24" transform="translate(642 627)" fill="#fff" stroke="#c7d0e1" stroke-width="1">
      <circle cx="4" cy="4" r="4" stroke="none"/>
      <circle cx="4" cy="4" r="3.5" fill="none"/>
    </g>
    <g id="Ellipse_25" data-name="Ellipse 25" transform="translate(541 626)" fill="#fff" stroke="#c7d0e1" stroke-width="1">
      <circle cx="4" cy="4" r="4" stroke="none"/>
      <circle cx="4" cy="4" r="3.5" fill="none"/>
    </g>
    <g id="Ellipse_26" data-name="Ellipse 26" transform="translate(744 604)" fill="#fff" stroke="#c7d0e1" stroke-width="1">
      <circle cx="4" cy="4" r="4" stroke="none"/>
      <circle cx="4" cy="4" r="3.5" fill="none"/>
    </g>
    <g id="Ellipse_27" data-name="Ellipse 27" transform="translate(845 607)" fill="#fff" stroke="#c7d0e1" stroke-width="1">
      <circle cx="4" cy="4" r="4" stroke="none"/>
      <circle cx="4" cy="4" r="3.5" fill="none"/>
    </g>
    <g id="Ellipse_17" data-name="Ellipse 17" transform="translate(706 604)" fill="#fff" stroke="#c7d0e1" stroke-width="1">
      <circle cx="4" cy="4" r="4" stroke="none"/>
      <circle cx="4" cy="4" r="3.5" fill="none"/>
    </g>
    <g id="Ellipse_16" data-name="Ellipse 16" transform="translate(758 634)" fill="#fff" stroke="#c7d0e1" stroke-width="1">
      <circle cx="4" cy="4" r="4" stroke="none"/>
      <circle cx="4" cy="4" r="3.5" fill="none"/>
    </g>
    <g id="Ellipse_15" data-name="Ellipse 15" transform="translate(831 665)" fill="#fff" stroke="#c7d0e1" stroke-width="1">
      <circle cx="4" cy="4" r="4" stroke="none"/>
      <circle cx="4" cy="4" r="3.5" fill="none"/>
    </g>
    <g id="Rectangle_1941" data-name="Rectangle 1941" transform="translate(375 300)" fill="#fff" stroke="#182d53" stroke-width="1">
      <rect width="130" height="45" stroke="none"/>
      <rect x="0.5" y="0.5" width="129" height="44" fill="none"/>
    </g>
    <g id="Rectangle_1943" data-name="Rectangle 1943" transform="translate(811 300)" fill="#fff" stroke="#182d53" stroke-width="1">
      <rect width="149" height="45" stroke="none"/>
      <rect x="0.5" y="0.5" width="148" height="44" fill="none"/>
    </g>
    <g id="Rectangle_1942" data-name="Rectangle 1942" transform="translate(576 300)" fill="#fff" stroke="#182d53" stroke-width="1">
      <rect width="106" height="45" stroke="none"/>
      <rect x="0.5" y="0.5" width="105" height="44" fill="none"/>
    </g>
    <g id="Group_1085" data-name="Group 1085" transform="translate(-6 1)">
      <text id="Streams" transform="translate(407 327)" font-size="14" font-family="Poppins-Regular, Poppins"><tspan x="0" y="0">Streams</tspan></text>
      <path id="Polygon_11" data-name="Polygon 11" d="M5,0l5,6H0Z" transform="translate(485 325) rotate(180)" fill="#0eb27a"/>
    </g>
    <g id="Group_1087" data-name="Group 1087" transform="translate(456 1)">
      <text id="Last_7_days" data-name="Last 7 days" transform="translate(381 327)" font-size="14" font-family="Poppins-Regular, Poppins"><tspan x="0" y="0">Last 7 days</tspan></text>
      <path id="Polygon_11-2" data-name="Polygon 11" d="M5,0l5,6H0Z" transform="translate(477 325) rotate(180)" fill="#0eb27a"/>
    </g>
    <g id="Group_1086" data-name="Group 1086" transform="translate(202 1)">
      <text id="Store" transform="translate(402 327)" font-size="14" font-family="Poppins-Regular, Poppins"><tspan x="0" y="0">Store</tspan></text>
      <path id="Polygon_11-3" data-name="Polygon 11" d="M5,0l5,6H0Z" transform="translate(457 325) rotate(180)" fill="#0eb27a"/>
    </g>
  </g>
</svg>
