<svg xmlns="http://www.w3.org/2000/svg" width="18.729" height="24.961" viewBox="0 0 18.729 24.961">
  <g id="Group_1084" data-name="Group 1084" transform="translate(-582.985 -293.087)">
    <path id="Path_2559" data-name="Path 2559" d="M592.3,318.048q-3.487,0-6.973,0a2.119,2.119,0,0,1-2.341-2.362q0-6.193,0-12.385c0-.726.13-.853.843-.861.387,0,.9.122,1.13-.074.279-.232.1-.762.091-1.159a7.992,7.992,0,0,1,1.551-5.31,7.272,7.272,0,0,1,12.992,3.8c.066.8.048,1.592.043,2.388,0,.271.076.378.357.361.34-.021.683-.01,1.024,0,.519.01.694.182.695.712q.006,2.926,0,5.851,0,3.34,0,6.68a2.119,2.119,0,0,1-2.342,2.361Q595.836,318.051,592.3,318.048Zm.017-15.607c1.266,0,2.532-.011,3.8.008.325,0,.421-.1.409-.412-.022-.583.013-1.169-.015-1.752a4.155,4.155,0,0,0-8.2-.881,12.9,12.9,0,0,0-.125,2.813c-.006.295.223.222.384.222C589.819,302.443,591.068,302.441,592.318,302.441Zm.015,11.434c.276,0,.552,0,.828,0,.632-.009.8-.207.72-.85-.09-.757-.17-1.516-.264-2.273a.711.711,0,0,1,.224-.643,2.049,2.049,0,0,0-.03-2.893,2.082,2.082,0,0,0-2.9-.023,2.049,2.049,0,0,0-.075,2.891.807.807,0,0,1,.242.732c-.1.773-.189,1.547-.269,2.321-.054.518.131.72.648.735C591.748,313.882,592.041,313.875,592.333,313.875Z" fill="#0eb27a"/>
  </g>
</svg>
