<svg xmlns="http://www.w3.org/2000/svg" width="38.001" height="38.007" viewBox="0 0 38.001 38.007">
  <g id="Group_1057" data-name="Group 1057" transform="translate(-1252.001 -360)">
    <g id="Group_1056" data-name="Group 1056" transform="translate(654.473 117.99)">
      <path id="Path_2553" data-name="Path 2553" d="M615.411,250.855c0-.223-.018-.447,0-.668a2.165,2.165,0,0,0-1.045-2.381,3.049,3.049,0,0,1-.92-3.742,3.336,3.336,0,0,1,6.307.45,3.193,3.193,0,0,1-1.436,3.6,1.217,1.217,0,0,0-.688,1.29c.044,1.087.028,2.177.005,3.265-.01.462.087.714.613.8a5.784,5.784,0,0,1,2.442,1.021c.392.283.611.2.917-.119,1.049-1.085,2.114-2.155,3.2-3.2a.7.7,0,0,0,.148-1,5.593,5.593,0,1,1,2.429,2.425.736.736,0,0,0-1.059.176c-1.025,1.073-2.082,2.116-3.146,3.151-.3.294-.411.49-.136.911a7.46,7.46,0,0,1,.848,6.668.664.664,0,0,0,.258.873c1.057.816,2.106,1.644,3.134,2.5a.8.8,0,0,0,1.081.123,3.282,3.282,0,0,1,4.557,1.562,3.326,3.326,0,1,1-6.216,2.324,1.647,1.647,0,0,1-.116-.724c.158-.838-.292-1.29-.908-1.737-.94-.682-1.833-1.43-2.728-2.171-.3-.245-.474-.288-.769.039a7.272,7.272,0,0,1-4.052,2.306c-.356.071-.53.225-.493.592a1.046,1.046,0,0,1,0,.222,1.992,1.992,0,0,0,1.248,2.405,4.173,4.173,0,0,1,1.869,5.068,4.432,4.432,0,0,1-8.627-.659,4.37,4.37,0,0,1,2.544-4.732,1.018,1.018,0,0,0,.747-1.13c-.037-1.519-.016-1.5-1.445-2.025a7.519,7.519,0,0,1-4.966-5.465c-.162-.634-.414-.771-1-.749-1.062.04-2.128.037-3.19,0a1.106,1.106,0,0,0-1.165.639,3.209,3.209,0,0,1-3.717,1.455,3.327,3.327,0,0,1,0-6.4,3.251,3.251,0,0,1,3.8,1.579.841.841,0,0,0,.861.512q1.818-.033,3.636,0c.451.009.654-.129.737-.6a6.2,6.2,0,0,1,1.055-2.509.513.513,0,0,0-.085-.8c-1.013-.98-2.014-1.975-2.988-2.993a.713.713,0,0,0-.954-.167,4.408,4.408,0,0,1-5.9-2.523,4.45,4.45,0,1,1,8.47-2.7,4.054,4.054,0,0,1-.228,2.9.694.694,0,0,0,.185.95q1.5,1.442,2.94,2.937c.28.289.475.4.858.123a6.179,6.179,0,0,1,2.581-1.068c.413-.071.52-.281.509-.66C615.4,252.141,615.41,251.5,615.411,250.855Z" fill="#fff"/>
    </g>
    <path id="Icon_ionic-md-musical-note" data-name="Icon ionic-md-musical-note" d="M12.377,4.5v5.939A2.247,2.247,0,1,0,13.5,12.381V6.751h2.253V4.5Z" transform="translate(1258.622 369.437)" fill="#3f5680"/>
  </g>
</svg>
