<svg xmlns="http://www.w3.org/2000/svg" width="16.327" height="21.219" viewBox="0 0 16.327 21.219">
  <path id="Icon_ionic-ios-musical-notes" data-name="Icon ionic-ios-musical-notes" d="M22.577,3.385,12.06,5.426a.452.452,0,0,0-.413.408V18.08a1.407,1.407,0,0,1-.122.6,1.359,1.359,0,0,1-.821.648c-.168.056-.4.107-.668.168-1.229.275-3.285.745-3.285,2.642a2.335,2.335,0,0,0,2.127,2.423,2.487,2.487,0,0,0,.362.036h0a6.3,6.3,0,0,0,2.612-.673,2.748,2.748,0,0,0,1.229-2.438V10.643a.4.4,0,0,1,.326-.4L21.159,8.68a.408.408,0,0,1,.49.4v6.677a1.462,1.462,0,0,1-.128.683,1.356,1.356,0,0,1-.826.648c-.168.056-.449.107-.719.168-1.229.275-3.285.74-3.285,2.637a2.339,2.339,0,0,0,2.132,2.464,4.215,4.215,0,0,0,.99-.046,5.848,5.848,0,0,0,1.862-.663,2.689,2.689,0,0,0,1.4-2.459V3.778A.4.4,0,0,0,22.577,3.385Z" transform="translate(-6.75 -3.375)" fill="#182d53"/>
</svg>
