<svg xmlns="http://www.w3.org/2000/svg" width="48.12" height="33.63" viewBox="0 0 48.12 33.63">
  <path id="Icon_simple-youtube" data-name="Icon simple-youtube" d="M47.123,10.617a6.031,6.031,0,0,0-4.188-4.188c-3.751-1-18.846-1-18.846-1s-15.057-.02-18.846,1a6.031,6.031,0,0,0-4.188,4.188A62.674,62.674,0,0,0,.008,22.26a62.673,62.673,0,0,0,1.047,11.6,6.031,6.031,0,0,0,4.188,4.188c3.747,1.007,18.846,1.007,18.846,1.007s15.055,0,18.846-1.007a6.031,6.031,0,0,0,4.188-4.188,62.674,62.674,0,0,0,1-11.6,62.673,62.673,0,0,0-1-11.643ZM19.271,29.463V15.036L31.835,22.26Z" transform="translate(-0.007 -5.424)" fill="#fff"/>
</svg>
