<svg id="Group_1071" data-name="Group 1071" xmlns="http://www.w3.org/2000/svg" width="64.472" height="64.472" viewBox="0 0 64.472 64.472">
  <path id="Path_264" data-name="Path 264" d="M641.326,371.089a32.236,32.236,0,1,1-32.321,32.088A32.35,32.35,0,0,1,641.326,371.089Zm-.014,19.027q-7.194,0-14.388,0c-1.367,0-1.905.533-1.827,1.8q.363,5.852.753,11.7c.394,6,.812,11.991,1.18,17.989.122,1.982.432,2.369,2.4,2.376,4.207.014,8.414.006,12.622.005,3.744,0,7.489.011,11.233-.011,1.53-.009,2.043-.426,2.127-1.724.363-5.62.694-11.242,1.054-16.862.279-4.361.565-8.723.889-13.081.121-1.629-.3-2.188-1.907-2.191Q648.381,390.106,641.312,390.115Zm-.057-2.893c2.647,0,5.295.011,7.942,0,1.6-.009,2.658-.9,2.695-2.218s-.97-2.287-2.6-2.3q-8.068-.05-16.136,0a2.292,2.292,0,0,0-2.567,2.325c.057,1.322,1.1,2.18,2.723,2.188C635.961,387.232,638.609,387.222,641.256,387.222Z" transform="translate(-609.005 -371.089)" fill="#f53649"/>
  <path id="Path_265" data-name="Path 265" d="M700.714,479.753c0,3.2-.014,6.392.009,9.588.007.958-.229,1.758-1.316,1.741s-1.317-.871-1.317-1.79q0-9.588,0-19.177c0-.945.322-1.772,1.364-1.753s1.281.845,1.272,1.8C700.7,473.36,700.714,476.556,700.714,479.753Z" transform="translate(-675.598 -443.804)" fill="#f53649"/>
  <path id="Path_266" data-name="Path 266" d="M764.863,479.757c0-3.2.019-6.393-.011-9.588-.009-.957.217-1.785,1.268-1.808s1.368.8,1.368,1.748q0,9.588,0,19.177c0,.917-.23,1.783-1.313,1.794-1.182.012-1.328-.884-1.321-1.861C764.878,486.066,764.863,482.911,764.863,479.757Z" transform="translate(-725.507 -443.803)" fill="#f53649"/>
  <path id="Path_267" data-name="Path 267" d="M731.669,479.606c0-3.232.008-6.465-.007-9.7,0-.8.229-1.422,1.067-1.622.809-.193,1.451.479,1.458,1.583.022,3.484.012,6.968.012,10.453q0,4.47,0,8.941c0,.7-.054,1.364-.821,1.676-.9.365-1.691-.3-1.7-1.512C731.654,486.155,731.67,482.88,731.669,479.606Z" transform="translate(-700.697 -443.724)" fill="#f53649"/>
</svg>
