<svg xmlns="http://www.w3.org/2000/svg" width="43.555" height="43.527" viewBox="0 0 43.555 43.527">
  <g id="Group_1094" data-name="Group 1094" transform="translate(-565.911 -258.526)">
    <path id="Path_2559" data-name="Path 2559" d="M682.1,337.81v-7.943c-1.57.447-3.109.888-4.649,1.324-3.292.932-6.581,1.877-9.882,2.777a.947.947,0,0,0-.829,1.108q.047,5.991.01,11.983a5.1,5.1,0,1,1-9.118-2.816,5.014,5.014,0,0,1,5.553-1.71c1.012.335,1.013.335,1.013-.771q0-7.733,0-15.467c0-1.477.162-1.691,1.562-2.09q8.363-2.38,16.728-4.757c1.628-.462,2.206-.018,2.206,1.687,0,7.025.017,14.051-.008,21.076a5.1,5.1,0,1,1-3.333-4.7C681.589,337.6,681.818,337.7,682.1,337.81Z" transform="translate(-75.236 -50.419)" fill="#fff"/>
    <path id="Path_2560" data-name="Path 2560" d="M573.5,282.119a1.916,1.916,0,0,0,.072-.905q.008-10.286,0-20.571c0-.227-.006-.453,0-.68a1.283,1.283,0,1,1,2.553-.066c.023.339.03.679.069,1.016a6.163,6.163,0,0,0,2.916,4.472c1.352.931,2.809,1.7,4.094,2.735a7.916,7.916,0,0,1,3.142,6.147c.083,2.8.061,5.609.056,8.414a1.247,1.247,0,0,1-1.249,1.413,1.227,1.227,0,0,1-1.286-1.377,6.315,6.315,0,0,0-3.464-5.56c-1.377-.835-2.76-1.662-4.189-2.522a1.7,1.7,0,0,0-.085.883c-.008,3.768.022,7.537-.019,11.305a5.088,5.088,0,0,1-9.905,1.478,4.83,4.83,0,0,1,1.3-5.3,4.88,4.88,0,0,1,5.271-1.109C573.014,281.973,573.215,282.165,573.5,282.119Z" transform="translate(0 0)" fill="#fff"/>
  </g>
</svg>
