<svg xmlns="http://www.w3.org/2000/svg" width="43.028" height="43.028" viewBox="0 0 43.028 43.028">
  <path id="Icon_awesome-user-circle" data-name="Icon awesome-user-circle" d="M21.514.563A21.514,21.514,0,1,0,43.028,22.076,21.51,21.51,0,0,0,21.514.563Zm0,8.328a7.634,7.634,0,1,1-7.634,7.634A7.634,7.634,0,0,1,21.514,8.89Zm0,29.842A16.624,16.624,0,0,1,8.805,32.816a9.672,9.672,0,0,1,8.545-5.188,2.123,2.123,0,0,1,.616.1,11.486,11.486,0,0,0,3.548.6,11.442,11.442,0,0,0,3.548-.6,2.123,2.123,0,0,1,.616-.1,9.672,9.672,0,0,1,8.545,5.188A16.624,16.624,0,0,1,21.514,38.732Z" transform="translate(0 -0.563)" fill="#dce2ec"/>
</svg>
