<svg xmlns="http://www.w3.org/2000/svg" width="19.8" height="25.732" viewBox="0 0 19.8 25.732">
  <path id="Icon_ionic-ios-musical-notes" data-name="Icon ionic-ios-musical-notes" d="M25.944,3.387,13.189,5.862a.548.548,0,0,0-.5.495V21.208a1.706,1.706,0,0,1-.148.724,1.648,1.648,0,0,1-1,.786c-.2.068-.482.13-.81.2-1.491.334-3.984.9-3.984,3.2a2.832,2.832,0,0,0,2.579,2.938,3.016,3.016,0,0,0,.439.043h0a7.635,7.635,0,0,0,3.167-.817,3.333,3.333,0,0,0,1.491-2.957V12.19a.491.491,0,0,1,.4-.482l9.4-1.9a.5.5,0,0,1,.594.482v8.1a1.773,1.773,0,0,1-.155.829,1.644,1.644,0,0,1-1,.786c-.2.068-.544.13-.872.2-1.491.334-3.984.9-3.984,3.2a2.837,2.837,0,0,0,2.586,2.988,5.112,5.112,0,0,0,1.2-.056,7.092,7.092,0,0,0,2.258-.8,3.261,3.261,0,0,0,1.7-2.981V3.864A.49.49,0,0,0,25.944,3.387Z" transform="translate(-6.75 -3.375)" fill="#fff"/>
</svg>
