<svg xmlns="http://www.w3.org/2000/svg" width="18.285" height="18.523" viewBox="0 0 18.285 18.523">
  <g id="Group_1054" data-name="Group 1054" transform="translate(-621.132 -820.507)">
    <path id="Path_249" data-name="Path 249" d="M804.4,919.378q0-2.423,0-4.847c0-.7.314-1.007,1.019-1.009.735,0,1.471,0,2.206,0a.867.867,0,0,1,.978.979q0,4.919,0,9.839a.857.857,0,0,1-.948.97q-1.157.007-2.315,0a.849.849,0,0,1-.94-.94C804.4,922.706,804.4,921.042,804.4,919.378Z" transform="translate(-170.007 -86.284)" fill="#fff"/>
    <path id="Path_250" data-name="Path 250" d="M714.166,964.378c0-1.061,0-2.121,0-3.182,0-.74.287-1.02,1.035-1.023s1.47-.005,2.205,0a.86.86,0,0,1,.969.986q0,3.218,0,6.436a.878.878,0,0,1-1.006.99q-1.121,0-2.242,0a.849.849,0,0,1-.96-.955C714.161,966.548,714.166,965.463,714.166,964.378Z" transform="translate(-86.302 -129.56)" fill="#fff"/>
    <path id="Path_251" data-name="Path 251" d="M623.786,1003.444c0-.591-.008-1.181,0-1.772a.866.866,0,0,1,.96-.968c.771-.01,1.543-.011,2.314,0a.854.854,0,0,1,.941.949q.016,1.79,0,3.58a.86.86,0,0,1-.977.947q-1.139.005-2.278,0a.854.854,0,0,1-.959-.928C623.775,1004.65,623.786,1004.047,623.786,1003.444Z" transform="translate(-2.458 -167.154)" fill="#fff"/>
    <path id="Path_252" data-name="Path 252" d="M798.823,823.434a2.927,2.927,0,1,1-2.917-2.927A2.929,2.929,0,0,1,798.823,823.434Zm-3.069.745c-.045.146.123.4-.1.454-.236.06-.39-.139-.471-.361,0-.011-.007-.023-.011-.034a.321.321,0,0,0-.451-.233c-.23.093-.214.3-.135.491a1.041,1.041,0,0,0,.865.629c.207.034.347.064.313.317a.143.143,0,0,0,.144.172.124.124,0,0,0,.129-.142c-.061-.338.186-.314.393-.364a.963.963,0,0,0,.825-.921.9.9,0,0,0-.743-.974c-.406-.091-.541-.278-.466-.661.024-.123-.076-.3.063-.36.16-.069.288.072.4.182a1.282,1.282,0,0,1,.1.108c.134.162.291.292.486.115s.1-.378-.045-.54a1.284,1.284,0,0,0-.735-.358c-.165-.033-.305-.059-.272-.279a.143.143,0,0,0-.113-.164.123.123,0,0,0-.153.115c.039.3-.185.3-.373.35a.974.974,0,0,0-.793.912.867.867,0,0,0,.7.892C795.684,823.628,795.867,823.777,795.754,824.179Z" transform="translate(-159.406)" fill="#fff"/>
    <path id="Path_253" data-name="Path 253" d="M630.684,874.351c.63.135,1.338.278,2.041.442a.376.376,0,0,1,.284.533c-.254.675-.524,1.345-.817,2a.41.41,0,0,1-.75.024,3,3,0,0,1-.254-.477c-.1-.248-.214-.3-.48-.159-2.56,1.335-5.128,2.653-7.694,3.976q-.529.273-1.059.545c-.4.2-.626.187-.762-.051-.147-.258-.027-.487.367-.691l6.991-3.608c.567-.292,1.124-.606,1.7-.868.333-.151.365-.308.167-.585a2.409,2.409,0,0,1-.253-.478C630.021,874.6,630.223,874.329,630.684,874.351Z" transform="translate(0 -49.948)" fill="#fff"/>
    <path id="Path_254" data-name="Path 254" d="M835.217,866.053c.111-.133-.133-.413.163-.422a.411.411,0,0,1,.448.418.4.4,0,0,1-.423.438C835.057,866.488,835.338,866.185,835.217,866.053Z" transform="translate(-198.597 -41.859)" fill="#fff"/>
    <path id="Path_255" data-name="Path 255" d="M824.824,844.173c-.089.117.115.36-.133.37a.374.374,0,0,1-.412-.4.368.368,0,0,1,.4-.373C824.928,843.789,824.737,844.039,824.824,844.173Z" transform="translate(-188.45 -21.574)" fill="#fff"/>
  </g>
</svg>
