<svg xmlns="http://www.w3.org/2000/svg" width="17.64" height="22.066" viewBox="0 0 17.64 22.066">
  <g id="Group_1052" data-name="Group 1052" transform="translate(-60 -232)">
    <path id="Path_238" data-name="Path 238" d="M-2167.2,1360.837q0,4.264,0,8.528c0,1.033-.371,1.407-1.392,1.407h-14.859c-1.006,0-1.388-.373-1.388-1.367q0-8.571,0-17.142c0-.954.38-1.338,1.322-1.342.517,0,1.035.025,1.55-.009.375-.025.447.115.441.461-.021,1.191,0,2.383-.014,3.575,0,.29.062.394.375.393q5.147-.017,10.293,0c.317,0,.375-.109.372-.4-.014-1.22,0-2.441-.011-3.661,0-.272.062-.381.354-.37.573.021,1.148,0,1.722.008a1.1,1.1,0,0,1,1.232,1.257Q-2167.2,1356.508-2167.2,1360.837Zm-8.824-1.1c1.822,0,3.645,0,5.467,0a1.1,1.1,0,0,0,1.138-.913,1.154,1.154,0,0,0-.673-1.186,1.446,1.446,0,0,0-.63-.108q-5.3,0-10.589,0a1.212,1.212,0,0,0-1.33,1.115c0,.659.518,1.093,1.322,1.094Zm0,4.406q2.647,0,5.294,0a2.032,2.032,0,0,0,.553-.052,1.085,1.085,0,0,0,.768-1.155,1.181,1.181,0,0,0-1.228-.98q-5.358-.006-10.717,0a1.189,1.189,0,0,0-1.287,1.1c0,.646.508,1.085,1.281,1.085Q-2178.694,1364.148-2176.025,1364.145Zm-2.221,4.412q1.571,0,3.141,0a1.534,1.534,0,0,0,.593-.076,1.072,1.072,0,0,0,.673-1.171,1.15,1.15,0,0,0-1.124-.94q-3.206-.01-6.411,0a1.187,1.187,0,0,0-1.268,1.121,1.124,1.124,0,0,0,1.255,1.068C-2180.34,1368.561-2179.293,1368.557-2178.246,1368.558Z" transform="translate(2244.842 -1116.707)" fill="#fff"/>
    <path id="Path_239" data-name="Path 239" d="M-2117.648,1329.752c-.961,0-1.922-.011-2.883.007-.306.006-.388-.092-.383-.389.017-.96,0-1.922.01-2.883a1.031,1.031,0,0,1,1.151-1.141q2.151-.01,4.3,0a1.03,1.03,0,0,1,1.147,1.145c.012.975,0,1.951.009,2.926,0,.264-.081.343-.343.34C-2115.639,1329.744-2116.644,1329.752-2117.648,1329.752Z" transform="translate(2186.422 -1093.341)" fill="#fff"/>
  </g>
</svg>
