<svg xmlns="http://www.w3.org/2000/svg" width="18.213" height="18.137" viewBox="0 0 18.213 18.137">
  <g id="Group_1055" data-name="Group 1055" transform="translate(-580.155 -391.235)">
    <path id="Path_256" data-name="Path 256" d="M589.257,396.429c-2.442,0-4.883,0-7.325-.006-.272,0-.359.06-.356.348.014,1.849.006,3.7.008,5.547,0,.6.263.861.87.864.486,0,.972.009,1.458,0,.216-.006.327.033.308.285-.028.364.114.841-.068,1.066s-.688.07-1.05.072a5.387,5.387,0,0,1-1.275-.054,2.107,2.107,0,0,1-1.66-2.01q-.019-4.622,0-9.244a2.1,2.1,0,0,1,2.09-2.051q7-.013,14.009,0a2.1,2.1,0,0,1,2.091,2.087q.02,4.587,0,9.173a2.122,2.122,0,0,1-2.084,2.1c-.557.014-1.114,0-1.671.008-.2,0-.274-.062-.266-.263.012-.308.011-.616,0-.924-.006-.185.061-.248.247-.244.509.01,1.019.007,1.529,0a.733.733,0,0,0,.825-.837c0-1.861-.007-3.722.009-5.582,0-.3-.11-.338-.366-.337C594.14,396.433,591.7,396.429,589.257,396.429Zm-.032-2.135H596.3c.644,0,.644,0,.644-.651,0-.773-.213-.982-1-.982H582.831c-1.142,0-1.236.112-1.258,1.264-.006.339.114.377.4.375C584.392,394.29,586.809,394.294,589.225,394.294Z" transform="translate(0 0)" fill="#fff"/>
    <path id="Path_257" data-name="Path 257" d="M660.974,532.876v-2.087c0-1.126.007-2.252-.006-3.377,0-.252.075-.336.321-.315.352.03.807-.142,1.032.065s.07.67.073,1.02c.009,1.422,0,2.844,0,4.266v.364c.145-.017.2-.116.269-.185.5-.492.994-.984,1.482-1.484.129-.132.22-.187.362-.016.247.3.741.516.739.849,0,.266-.45.534-.708.793-.878.882-1.764,1.756-2.634,2.644-.167.171-.255.157-.415,0q-1.611-1.631-3.243-3.242c-.172-.169-.163-.265.008-.413a5.066,5.066,0,0,0,.552-.553c.173-.2.293-.226.493-.012C659.822,531.741,660.367,532.267,660.974,532.876Z" transform="translate(-72.425 -126.163)" fill="#fff"/>
    <path id="Path_258" data-name="Path 258" d="M618.35,478.578c1.456,0,2.913.007,4.369-.006.263,0,.362.061.333.332a3.021,3.021,0,0,0,0,.674c.039.332-.058.437-.414.434-2.226-.019-4.452-.009-6.678-.009-.675,0-1.35-.008-2.024,0-.216,0-.3-.055-.279-.278.035-.373-.154-.851.078-1.092.2-.208.674-.054,1.027-.056C615.958,478.574,617.154,478.578,618.35,478.578Z" transform="translate(-31.083 -81.084)" fill="#fff"/>
  </g>
</svg>
