<svg xmlns="http://www.w3.org/2000/svg" width="161.267" height="47.155" viewBox="0 0 161.267 47.155">
  <g id="Group_1051" data-name="Group 1051" transform="translate(-49 -36.57)">
    <path id="Path_220" data-name="Path 220" d="M-2704.657,2000.238c.26-.9.493-1.814.786-2.706a3.086,3.086,0,0,1,2.241-2.059c.089-.025.211.022.249-.114h.2a1.044,1.044,0,0,0,.713,0h.1c1.655.436,2.607,1.8,3.751,2.888,4.693,4.451,9.352,8.939,14.022,13.414a2.079,2.079,0,0,1,.16.194c-.22.12-.4-.022-.569-.112-2.668-1.38-5.327-2.778-7.987-4.173q-2.548-1.335-5.1-2.664-4.135-2.146-8.252-4.324C-2704.478,2000.507-2704.671,2000.463-2704.657,2000.238Z" transform="translate(2763.428 -1958.788)" fill="#0aa370"/>
    <path id="Path_221" data-name="Path 221" d="M-2800.441,2271.685a26.509,26.509,0,0,0,.917-2.974c.79-2.667,1.559-5.339,2.338-8.009a1.98,1.98,0,0,1,.1-.227.793.793,0,0,1,.177.664q.008,6.833,0,13.667a.792.792,0,0,1-.177.664,3.142,3.142,0,0,1-3.252-2.4.789.789,0,0,0-.1-.161Z" transform="translate(2849.441 -2196.863)" fill="#0aa370"/>
    <g id="Group_1050" data-name="Group 1050">
      <path id="Path_223" data-name="Path 223" d="M-2767.6,2069.513q0-7.5,0-14.995.007-3.38.012-6.76,0-6.71,0-13.42a3.173,3.173,0,0,1,4.594-2.881,19.108,19.108,0,0,0,1.814.9c.621.343,1.235.7,1.863,1.025q5.92,3.094,11.844,6.179,4.029,2.1,8.055,4.214c.149.078.31.132.465.2,1.276.8,2.649,1.424,3.973,2.137,1.027.554,2.068,1.082,3.1,1.627a3.2,3.2,0,0,1,1.609,4.543,1.27,1.27,0,0,1-.628.926c-1.286.907-2.6,1.766-3.923,2.625a.363.363,0,0,1-.241.061c-1.485-1.362-2.921-2.776-4.427-4.116-.14-.124-.283-.243-.431-.357a3.513,3.513,0,0,0-1.1-.806c-2.308-1.185-4.6-2.407-6.9-3.6-1.747-.9-3.477-1.841-5.235-2.724a2.585,2.585,0,0,0-.558-.244,1.168,1.168,0,0,0-1.487,1.051,5.033,5.033,0,0,0-.011.508q0,7.292,0,14.584c0,1.126.266,1.43,1.385,1.594a28.684,28.684,0,0,0,2.122,2.887,10.008,10.008,0,0,1,1.05,1.475q-5.638,3.737-11.275,7.476a4.775,4.775,0,0,1-2.3,1,3.19,3.19,0,0,1-3.357-3.025C-2767.594,2070.9-2767.594,2070.208-2767.6,2069.513Z" transform="translate(2819.949 -1990.906)" fill="#fefefe"/>
      <path id="Path_224" data-name="Path 224" d="M-1853.972,2044.024a15.363,15.363,0,0,1,9.324,2.839c.4.289.418.463.129.852-.941,1.265-1.846,2.556-2.739,3.855-.226.329-.36.4-.728.153a11.739,11.739,0,0,0-6.12-2.116,3.588,3.588,0,0,0-1.88.333,1.374,1.374,0,0,0-.116,2.442,10.34,10.34,0,0,0,3.359,1.119,28.655,28.655,0,0,1,5.319,1.677c5.625,2.523,4.487,9.63.944,11.988a11.465,11.465,0,0,1-5.99,1.865,17.778,17.778,0,0,1-10.141-2.421,14.889,14.889,0,0,1-1.9-1.367c-.178-.149-.213-.246-.047-.441,1.122-1.317,2.243-2.635,3.334-3.976.259-.318.408-.151.612,0a12.566,12.566,0,0,0,5.77,2.5,7.255,7.255,0,0,0,3.229-.069,1.824,1.824,0,0,0,1-.657,1.357,1.357,0,0,0-.325-1.931,8.2,8.2,0,0,0-2.84-1.064,38.6,38.6,0,0,1-4.984-1.412,9.964,9.964,0,0,1-2.616-1.445,6.04,6.04,0,0,1-2.164-5.772c.4-3.446,2.641-5.783,6.231-6.626.363-.085.731-.147,1.1-.21A12.414,12.414,0,0,1-1853.972,2044.024Z" transform="translate(2009.114 -2002.488)" fill="#fff"/>
      <path id="Path_225" data-name="Path 225" d="M-1635.394,2068.878a17.067,17.067,0,0,1-10.895-3.734c-.241-.2-.314-.317-.084-.586q1.64-1.911,3.239-3.857c.233-.284.38-.259.646-.058a12.18,12.18,0,0,0,7.842,2.636,3.5,3.5,0,0,0,1.619-.384,1.385,1.385,0,0,0,.1-2.475,10,10,0,0,0-3.156-1.09,27.088,27.088,0,0,1-5.472-1.708,6.158,6.158,0,0,1-3.729-4.281,7.411,7.411,0,0,1,5.061-8.86,14.912,14.912,0,0,1,6.744-.492,14.418,14.418,0,0,1,6.979,2.72c.334.245.424.4.138.782-.983,1.318-1.923,2.667-2.858,4.02-.181.262-.288.265-.544.1a11.957,11.957,0,0,0-6.255-2.178,3.85,3.85,0,0,0-1.648.24,1.42,1.42,0,0,0-.982,1.244,1.375,1.375,0,0,0,.822,1.4,14.834,14.834,0,0,0,3.634,1.115,27.33,27.33,0,0,1,4.874,1.571c5.591,2.467,4.579,9.619.892,12.041a12,12,0,0,1-6.362,1.837C-1634.986,2068.885-1635.19,2068.878-1635.394,2068.878Z" transform="translate(1813.215 -2002.313)" fill="#fff"/>
      <path id="Path_226" data-name="Path 226" d="M-2102.491,2048c2.54,0,4.985.005,7.429-.006.327,0,.378.241.488.435q2.193,3.865,4.378,7.735c.106.188.22.372.355.6l3.087-5.417q.855-1.5,1.708-3c.11-.194.2-.354.487-.352,2.344.014,4.687.009,7.031.011a.567.567,0,0,1,.139.038c.013.2-.126.317-.21.455q-4.335,7.086-8.682,14.165a1.625,1.625,0,0,0-.248.9c.01,2.7,0,5.391.014,8.085,0,.42-.063.583-.543.575-1.918-.032-3.838-.025-5.757,0-.388,0-.479-.107-.477-.483.016-2.7,0-5.39.014-8.086a1.637,1.637,0,0,0-.249-.9q-4.316-7.069-8.614-14.147C-2102.244,2048.429-2102.341,2048.255-2102.491,2048Z" transform="translate(2222.683 -2006.051)" fill="#fff"/>
      <path id="Path_227" data-name="Path 227" d="M-1417.493,2047.972c3.364,0,6.727.008,10.09-.01.425,0,.537.105.531.53-.026,1.644-.02,3.289,0,4.934,0,.353-.092.458-.452.456-2.106-.016-4.213,0-6.319-.018-.405,0-.5.11-.5.5.013,5.748,0,11.5.019,17.244,0,.455-.1.594-.577.586-1.885-.03-3.771-.026-5.656,0-.43.005-.53-.119-.529-.535.013-5.731,0-11.462.021-17.193,0-.5-.129-.614-.615-.607-2.072.029-4.145,0-6.217.022-.412,0-.467-.152-.464-.5.015-1.645.018-3.29,0-4.934,0-.377.092-.485.479-.483C-1424.288,2047.979-1420.89,2047.972-1417.493,2047.972Z" transform="translate(1617.139 -2006.026)" fill="#fff"/>
      <path id="Path_228" data-name="Path 228" d="M-2629.6,2244.552a20.473,20.473,0,0,1-1.547-1.915c-.5-.592-.962-1.21-1.422-1.83-.1-.137-.387-.289-.1-.518a3.889,3.889,0,0,1,1.035-.715c1.39-.939,2.793-1.858,4.185-2.794,2.573-1.73,5.188-3.4,7.761-5.125a1.928,1.928,0,0,0,.915-1.106c.065-.255-.1-.5.018-.749a3.1,3.1,0,0,1,.9.727c1.221,1.1,2.4,2.237,3.6,3.363.11.1.237.2.245.372-.054.247-.275.332-.453.452-2.962,2-5.975,3.929-8.945,5.92-.225.151-.478.243-.709.379-1.578.919-3.049,2-4.589,2.979C-2629,2244.178-2629.3,2244.364-2629.6,2244.552Z" transform="translate(2698.891 -2169.315)" fill="#c1cadc"/>
      <path id="Path_229" data-name="Path 229" d="M-2547.706,2248.841c1.105-.862,2.311-1.578,3.473-2.357,2.2-1.476,4.421-2.931,6.633-4.395,1.153-.764,2.3-1.536,3.461-2.286a4.116,4.116,0,0,0,1.334-1.285,4.026,4.026,0,0,1,1.508,2.1,3.171,3.171,0,0,1-2.205,3.819c-2.485.785-4.973,1.557-7.461,2.333q-3.15.982-6.3,1.959C-2547.409,2248.778-2547.559,2248.805-2547.706,2248.841Z" transform="translate(2622.485 -2177.146)" fill="#0aa370"/>
      <path id="Path_230" data-name="Path 230" d="M-2304.176,2316.28l1.854-4.055c.3-.646.62-1.281.875-1.942a.658.658,0,0,1,.759-.479c.817.03.818.008.818.842,0,2.832-.01,5.663.011,8.495,0,.436-.085.585-.55.564-.87-.04-.871-.01-.871-.9v-5.645a.847.847,0,0,0-.3.475c-.647,1.433-1.3,2.866-1.917,4.311a.522.522,0,0,1-.605.378c-.317-.024-.59.029-.766-.385-.588-1.385-1.236-2.746-1.862-4.115-.067-.146-.145-.288-.231-.458a.745.745,0,0,0-.084.527c0,1.763-.012,3.527,0,5.29,0,.377-.065.538-.5.526-.948-.028-.949,0-.949-.929,0-2.8.013-5.6-.012-8.393,0-.485.152-.57.6-.585a.971.971,0,0,1,1.1.684C-2305.984,2312.391-2305.092,2314.272-2304.176,2316.28Z" transform="translate(2407.679 -2241.15)" fill="#0aa370"/>
      <path id="Path_231" data-name="Path 231" d="M-2125.626,2343.729a4.523,4.523,0,0,1-2.911-.842c-.227-.164-.267-.276-.073-.512.58-.709.57-.719,1.358-.308a3.325,3.325,0,0,0,2.462.321.913.913,0,0,0,.784-.925c-.053-.512-.442-.645-.865-.7-.639-.08-1.284-.119-1.921-.208a1.639,1.639,0,0,1-1.63-1.631,1.948,1.948,0,0,1,1.251-2.154,4.969,4.969,0,0,1,4.254.482c.213.123.239.208.071.414-.6.735-.592.748-1.459.387a3.5,3.5,0,0,0-1.742-.247,1.208,1.208,0,0,0-.74.3.646.646,0,0,0,.275,1.164,12.078,12.078,0,0,0,1.412.167c.219.024.439.037.656.075,1.237.214,1.768.754,1.8,1.82a2.027,2.027,0,0,1-1.707,2.287A4.77,4.77,0,0,1-2125.626,2343.729Z" transform="translate(2246.25 -2265.127)" fill="#0aa370"/>
      <path id="Path_232" data-name="Path 232" d="M-2196.813,2343.658a2.506,2.506,0,0,1-3.649.065,2.479,2.479,0,0,1-.613-1.63c-.027-1.473-.014-2.946-.026-4.419,0-.227.053-.321.309-.336,1.138-.067,1.138-.076,1.138,1.077,0,1.067,0,2.134,0,3.2a1.422,1.422,0,0,0,1.885,1.5,1.174,1.174,0,0,0,.981-1.24c.009-1.354.019-2.71-.007-4.064-.007-.394.119-.479.49-.472.986.018.987,0,.987.986,0,1.863-.013,3.726.01,5.588,0,.415-.128.553-.518.5a1.378,1.378,0,0,0-.2,0C-2196.758,2344.4-2196.758,2344.4-2196.813,2343.658Z" transform="translate(2311.235 -2265.862)" fill="#0aa370"/>
      <path id="Path_233" data-name="Path 233" d="M-2017.6,2340.058c0,.169,0,.339,0,.509a1.554,1.554,0,0,0,.83,1.612,1.84,1.84,0,0,0,2.094-.266c.324-.286.488-.21.714.037.023.025.049.047.074.07.672.633.659.791-.193,1.24a3.921,3.921,0,0,1-3.393.144,2.425,2.425,0,0,1-1.5-1.972,8.277,8.277,0,0,1-.054-2.332,2.872,2.872,0,0,1,3.53-2.624,3.409,3.409,0,0,1,1.9.777c.251.22.347.4,0,.617a.933.933,0,0,0-.227.2c-.3.369-.549.422-.976.082a1.823,1.823,0,0,0-2.021-.145,1.58,1.58,0,0,0-.78,1.642C-2017.593,2339.786-2017.6,2339.922-2017.6,2340.058Z" transform="translate(2147.781 -2265.08)" fill="#0aa370"/>
      <path id="Path_234" data-name="Path 234" d="M-2050.215,2341.061c0,1.016-.012,2.031.007,3.046.006.337-.068.475-.443.472-1-.008-1,.01-1-.974,0-1.862.009-3.724-.007-5.586,0-.377.066-.536.5-.522.95.029.951,0,.951.973Z" transform="translate(2177.038 -2266.028)" fill="#0ca471"/>
      <path id="Path_235" data-name="Path 235" d="M-2050.183,2310.668c-.012.833.108.716-.784.717-.766,0-.654.1-.655-.792,0-.757-.092-.634.807-.642C-2050.183,2309.944-2050.183,2309.949-2050.183,2310.668Z" transform="translate(2177.007 -2241.288)" fill="#0fa572"/>
      <path id="Path_236" data-name="Path 236" d="M-2632.235,2163.507a1.373,1.373,0,0,1-.7,1.838q-6.183,4.1-12.368,8.192a2.766,2.766,0,0,1-.842.46c-1.1.085-1.634-.41-1.634-1.527,0-5,.031-9.99-.025-14.985a1.412,1.412,0,0,1,2.16-1.3c4.152,2.21,8.329,4.374,12.5,6.552A1.939,1.939,0,0,1-2632.235,2163.507Z" transform="translate(2712.375 -2103.024)" fill="#3f567f"/>
      <path id="Path_237" data-name="Path 237" d="M-2293.158,2061.493a8.5,8.5,0,0,0-3.332-1.956c.369-.21.676-.381.981-.558a5.746,5.746,0,0,0,.5-9.375,8.6,8.6,0,0,0-5.011-1.589c-4.347-.054-8.695-.021-13.042-.041-.371,0-.408.148-.408.448q.008,11.646-.005,23.292c0,.426.153.493.528.49,1.953-.016,3.906.009,5.859-.011,2.614-.027,5.231.119,7.841-.089a10.063,10.063,0,0,0,5.094-1.711A6.291,6.291,0,0,0-2293.158,2061.493Zm-13.731-7.786c0-.184,0-.328.258-.319a47.428,47.428,0,0,1,5.237.114,1.94,1.94,0,0,1,1.861,2.174,1.738,1.738,0,0,1-1.147,1.594,4.68,4.68,0,0,1-1.891.335c-.543.009-1.087,0-1.63,0-.781,0-1.562-.009-2.343,0-.263,0-.351-.077-.348-.345C-2306.88,2056.08-2306.886,2054.894-2306.889,2053.707Zm7.1,12.724a4.621,4.621,0,0,1-1.836.33c-.712.006-1.424,0-2.136,0-.9,0-1.8-.011-2.7.006-.313.006-.445-.058-.438-.412.023-1.218.018-2.437,0-3.655,0-.293.087-.367.372-.365,1.712.013,3.424,0,5.136.011a4.241,4.241,0,0,1,1.584.319,1.9,1.9,0,0,1,1.287,1.879A1.917,1.917,0,0,1-2299.791,2066.431Z" transform="translate(2412.148 -2006.037)" fill="#fff"/>
    </g>
  </g>
</svg>
