<svg xmlns="http://www.w3.org/2000/svg" width="14.17" height="14.17" viewBox="0 0 14.17 14.17">
  <path id="Icon_awesome-history" data-name="Icon awesome-history" d="M14.733,7.634A7.085,7.085,0,0,1,3.2,13.164a.685.685,0,0,1-.053-1.017l.322-.322a.687.687,0,0,1,.911-.057,5.257,5.257,0,1,0-.336-7.951L5.5,5.267a.457.457,0,0,1-.323.78H1.02a.457.457,0,0,1-.457-.457V1.437a.457.457,0,0,1,.78-.323L2.753,2.525A7.085,7.085,0,0,1,14.733,7.634ZM9.564,9.885l.281-.361a.686.686,0,0,0-.12-.962l-1.163-.9V4.676a.686.686,0,0,0-.686-.686H7.419a.686.686,0,0,0-.686.686V8.552L8.6,10.005a.686.686,0,0,0,.962-.12Z" transform="translate(-0.563 -0.563)" fill="#0eb27a"/>
</svg>
