<svg xmlns="http://www.w3.org/2000/svg" width="26.539" height="26.56" viewBox="0 0 26.539 26.56">
  <g id="Group_1059" data-name="Group 1059" transform="translate(-601.486 -412.476)">
    <path id="Path_262" data-name="Path 262" d="M614.759,444.5H626.13a6.037,6.037,0,0,1,.621.011,1.353,1.353,0,0,1,1.274,1.354,1.328,1.328,0,0,1-1.266,1.294c-.618.043-1.242.012-1.863.019-.951.011-.839-.111-.84.813q-.006,7.3,0,14.6c0,2.853-1.619,4.48-4.454,4.481q-4.878,0-9.756,0a4.041,4.041,0,0,1-4.385-4.363c0-4.95-.009-9.9.011-14.851,0-.529-.1-.746-.675-.695a16.438,16.438,0,0,1-1.8.009,1.347,1.347,0,1,1,.021-2.671Q608.887,444.489,614.759,444.5Zm-1.343,11.328c0-1.1.012-2.2,0-3.293a1.272,1.272,0,0,0-1.285-1.373,1.293,1.293,0,0,0-1.345,1.384q-.018,3.231,0,6.462a1.3,1.3,0,0,0,1.326,1.405,1.282,1.282,0,0,0,1.306-1.416C613.426,457.937,613.417,456.881,613.416,455.825Zm2.679-.04c0,1.056-.008,2.112,0,3.169a1.292,1.292,0,0,0,1.328,1.457,1.323,1.323,0,0,0,1.306-1.489q.009-3.138,0-6.275a1.322,1.322,0,0,0-1.308-1.488,1.292,1.292,0,0,0-1.327,1.458C616.088,453.672,616.1,454.728,616.1,455.784Z" transform="translate(0 -28.036)" fill="#afb2b8"/>
    <path id="Path_263" data-name="Path 263" d="M680.186,415.158c-.828,0-1.656.01-2.484,0a1.345,1.345,0,1,1,.021-2.671q2.453-.016,4.906,0a1.358,1.358,0,0,1,1.53,1.345c-.006.8-.6,1.316-1.551,1.327C681.8,415.165,680.993,415.158,680.186,415.158Z" transform="translate(-65.425)" fill="#afb2b8"/>
  </g>
</svg>
