<svg xmlns="http://www.w3.org/2000/svg" width="17.361" height="13.564" viewBox="0 0 17.361 13.564">
  <path id="Icon_awesome-exchange-alt" data-name="Icon awesome-exchange-alt" d="M0,7.734V7.192a.814.814,0,0,1,.814-.814H13.021V4.75a.814.814,0,0,1,1.389-.575l2.713,2.713a.814.814,0,0,1,0,1.151L14.41,10.751a.814.814,0,0,1-1.389-.575V8.548H.814A.814.814,0,0,1,0,7.734Zm16.547,5.154H4.34V11.261a.814.814,0,0,0-1.389-.575L.238,13.4a.814.814,0,0,0,0,1.151l2.713,2.713a.814.814,0,0,0,1.389-.575V15.058H16.547a.814.814,0,0,0,.814-.814V13.7A.814.814,0,0,0,16.547,12.888Z" transform="translate(0 -3.936)" fill="#0eb27a"/>
</svg>
