<svg xmlns="http://www.w3.org/2000/svg" width="655.167" height="366" viewBox="0 0 655.167 366">
  <g id="Group_1054" data-name="Group 1054" transform="translate(-304.833 -301)">
    <rect id="Rectangle_32" data-name="Rectangle 32" width="46" height="6" transform="translate(321 301)" fill="#0eb27a"/>
    <rect id="Rectangle_33" data-name="Rectangle 33" width="46" height="6" transform="translate(460 301)" fill="#c7d0e1"/>
    <rect id="Rectangle_34" data-name="Rectangle 34" width="46" height="6" transform="translate(579 301)" fill="#ffe2d5"/>
    <text id="Total_Earnings" data-name="Total Earnings" transform="translate(321 331)" font-size="14" font-family="Poppins-Regular, Poppins"><tspan x="0" y="0">Total Earnings</tspan></text>
    <path id="Path_253" data-name="Path 253" d="M2520.5,665.168l55.067-237.879,110.309,80.3,54.521,80.3,54.943,29.585,54.521,47.691Z" transform="translate(-2014 -2)" fill="rgba(14,178,122,0.1)" opacity="0.83"/>
    <text id="Streams" transform="translate(460 331)" fill="#c7d0e1" font-size="14" font-family="Poppins-Regular, Poppins"><tspan x="0" y="0">Streams</tspan></text>
    <text id="Downloads" transform="translate(579 331)" fill="#c7d0e1" font-size="14" font-family="Poppins-Regular, Poppins"><tspan x="0" y="0">Downloads</tspan></text>
    <text id="Dec" transform="translate(329 406)" fill="#c7d0e1" font-size="14" font-family="Poppins-Regular, Poppins"><tspan x="0" y="0">Dec</tspan></text>
    <text id="Jan" transform="translate(386 406)" fill="#c7d0e1" font-size="14" font-family="Poppins-Regular, Poppins"><tspan x="0" y="0">Jan</tspan></text>
    <text id="Feb" transform="translate(435 406)" fill="#c7d0e1" font-size="14" font-family="Poppins-Regular, Poppins"><tspan x="0" y="0">Feb</tspan></text>
    <text id="Mar" transform="translate(491 406)" fill="#c7d0e1" font-size="14" font-family="Poppins-Regular, Poppins"><tspan x="0" y="0">Mar</tspan></text>
    <text id="Apr" transform="translate(548 406)" fill="#c7d0e1" font-size="14" font-family="Poppins-Regular, Poppins"><tspan x="0" y="0">Apr</tspan></text>
    <text id="May" transform="translate(603 406)" fill="#c7d0e1" font-size="14" font-family="Poppins-Regular, Poppins"><tspan x="0" y="0">May</tspan></text>
    <text id="Jun" transform="translate(662 406)" fill="#c7d0e1" font-size="14" font-family="Poppins-Regular, Poppins"><tspan x="0" y="0">Jun</tspan></text>
    <text id="Jul" transform="translate(718 406)" fill="#c7d0e1" font-size="14" font-family="Poppins-Regular, Poppins"><tspan x="0" y="0">Jul</tspan></text>
    <text id="Aug" transform="translate(769 406)" fill="#c7d0e1" font-size="14" font-family="Poppins-Regular, Poppins"><tspan x="0" y="0">Aug</tspan></text>
    <text id="Sep" transform="translate(827 406)" fill="#c7d0e1" font-size="14" font-family="Poppins-Regular, Poppins"><tspan x="0" y="0">Sep</tspan></text>
    <text id="Oct" transform="translate(877 406)" fill="#c7d0e1" font-size="14" font-family="Poppins-Regular, Poppins"><tspan x="0" y="0">Oct</tspan></text>
    <text id="Nov" transform="translate(933 406)" fill="#c7d0e1" font-size="14" font-family="Poppins-Regular, Poppins"><tspan x="0" y="0">Nov</tspan></text>
    <line id="Line_7" data-name="Line 7" y2="236.5" transform="translate(342.5 426.5)" fill="none" stroke="#c7d0e1" stroke-width="1"/>
    <line id="Line_11" data-name="Line 11" y2="236.5" transform="translate(561.5 426.5)" fill="none" stroke="#c7d0e1" stroke-width="1"/>
    <line id="Line_15" data-name="Line 15" y2="236.5" transform="translate(779.5 426.5)" fill="none" stroke="#c7d0e1" stroke-width="1"/>
    <line id="Line_8" data-name="Line 8" y2="236.5" transform="translate(397.5 426.5)" fill="none" stroke="#c7d0e1" stroke-width="1"/>
    <line id="Line_12" data-name="Line 12" y2="236.5" transform="translate(615.5 426.5)" fill="none" stroke="#c7d0e1" stroke-width="1"/>
    <line id="Line_16" data-name="Line 16" y2="236.5" transform="translate(834.5 426.5)" fill="none" stroke="#c7d0e1" stroke-width="1"/>
    <line id="Line_9" data-name="Line 9" y2="236.5" transform="translate(451.5 426.5)" fill="none" stroke="#c7d0e1" stroke-width="1"/>
    <line id="Line_13" data-name="Line 13" y2="236.5" transform="translate(670.5 426.5)" fill="none" stroke="#c7d0e1" stroke-width="1"/>
    <line id="Line_17" data-name="Line 17" y2="236.5" transform="translate(889.5 426.5)" fill="none" stroke="#c7d0e1" stroke-width="1"/>
    <line id="Line_10" data-name="Line 10" y2="236.5" transform="translate(506.5 426.5)" fill="none" stroke="#c7d0e1" stroke-width="1"/>
    <line id="Line_14" data-name="Line 14" y2="236.5" transform="translate(725.5 426.5)" fill="none" stroke="#c7d0e1" stroke-width="1"/>
    <line id="Line_18" data-name="Line 18" y2="236.5" transform="translate(944.5 426.5)" fill="none" stroke="#c7d0e1" stroke-width="1"/>
    <path id="Path_252" data-name="Path 252" d="M2318.833,665c204,0,202.043.168,202.043.168l54.943-237.328s108.26,77.7,108.911,79.326,54.943,79.651,54.943,79.651l53.968,30.235,55.268,48.116" transform="translate(-2014 -2)" fill="none" stroke="#0eb27a" stroke-width="1"/>
    <g id="Ellipse_1" data-name="Ellipse 1" transform="translate(339 659)" fill="#fff" stroke="#c7d0e1" stroke-width="1">
      <circle cx="4" cy="4" r="4" stroke="none"/>
      <circle cx="4" cy="4" r="3.5" fill="none"/>
    </g>
    <g id="Ellipse_2" data-name="Ellipse 2" transform="translate(394 659)" fill="#fff" stroke="#c7d0e1" stroke-width="1">
      <circle cx="4" cy="4" r="4" stroke="none"/>
      <circle cx="4" cy="4" r="3.5" fill="none"/>
    </g>
    <g id="Ellipse_3" data-name="Ellipse 3" transform="translate(503 659)" fill="#fff" stroke="#c7d0e1" stroke-width="1">
      <circle cx="4" cy="4" r="4" stroke="none"/>
      <circle cx="4" cy="4" r="3.5" fill="none"/>
    </g>
    <g id="Ellipse_4" data-name="Ellipse 4" transform="translate(558 423)" fill="#fff" stroke="#c7d0e1" stroke-width="1">
      <circle cx="4" cy="4" r="4" stroke="none"/>
      <circle cx="4" cy="4" r="3.5" fill="none"/>
    </g>
    <g id="Ellipse_5" data-name="Ellipse 5" transform="translate(667 502)" fill="#fff" stroke="#c7d0e1" stroke-width="1">
      <circle cx="4" cy="4" r="4" stroke="none"/>
      <circle cx="4" cy="4" r="3.5" fill="none"/>
    </g>
    <g id="Ellipse_6" data-name="Ellipse 6" transform="translate(722 581)" fill="#fff" stroke="#c7d0e1" stroke-width="1">
      <circle cx="4" cy="4" r="4" stroke="none"/>
      <circle cx="4" cy="4" r="3.5" fill="none"/>
    </g>
    <g id="Ellipse_7" data-name="Ellipse 7" transform="translate(776 611)" fill="#fff" stroke="#c7d0e1" stroke-width="1">
      <circle cx="4" cy="4" r="4" stroke="none"/>
      <circle cx="4" cy="4" r="3.5" fill="none"/>
    </g>
    <g id="Ellipse_8" data-name="Ellipse 8" transform="translate(831 659)" fill="#fff" stroke="#c7d0e1" stroke-width="1">
      <circle cx="4" cy="4" r="4" stroke="none"/>
      <circle cx="4" cy="4" r="3.5" fill="none"/>
    </g>
  </g>
</svg>
