<svg xmlns="http://www.w3.org/2000/svg" width="46" height="46" viewBox="0 0 46 46">
  <g id="Group_11681" data-name="Group 11681" transform="translate(-636 -243)">
    <g id="Group_11678" data-name="Group 11678" transform="translate(258)">
      <circle id="Ellipse_292" data-name="Ellipse 292" cx="23" cy="23" r="23" transform="translate(378 243)" fill="#3f567f"/>
    </g>
    <path id="Icon_ionic-ios-musical-notes" data-name="Icon ionic-ios-musical-notes" d="M25.944,3.387,13.189,5.862a.548.548,0,0,0-.5.495V21.208a1.706,1.706,0,0,1-.148.724,1.648,1.648,0,0,1-1,.786c-.2.068-.482.13-.81.2-1.491.334-3.984.9-3.984,3.2a2.832,2.832,0,0,0,2.579,2.938,3.016,3.016,0,0,0,.439.043h0a7.635,7.635,0,0,0,3.167-.817,3.333,3.333,0,0,0,1.491-2.957V12.19a.491.491,0,0,1,.4-.482l9.4-1.9a.5.5,0,0,1,.594.482v8.1a1.773,1.773,0,0,1-.155.829,1.644,1.644,0,0,1-1,.786c-.2.068-.544.13-.872.2-1.491.334-3.984.9-3.984,3.2a2.837,2.837,0,0,0,2.586,2.988,5.112,5.112,0,0,0,1.2-.056,7.092,7.092,0,0,0,2.258-.8,3.261,3.261,0,0,0,1.7-2.981V3.864A.49.49,0,0,0,25.944,3.387Z" transform="translate(642.25 249.625)" fill="#fff"/>
  </g>
</svg>
