<svg xmlns="http://www.w3.org/2000/svg" width="884" height="218" viewBox="0 0 884 218">
  <g id="Group_1022" data-name="Group 1022" transform="translate(-287 -47.617)">
    <g id="Rectangle_1841" data-name="Rectangle 1841" transform="translate(287 47.617)" fill="#fff" stroke="#e6eeec" stroke-width="1">
      <rect width="884" height="218" stroke="none"/>
      <rect x="0.5" y="0.5" width="883" height="217" fill="none"/>
    </g>
    <g id="Group_1012" data-name="Group 1012" transform="translate(326.762 63.905)">
      <path id="Path_2097" data-name="Path 2097" d="M870.311,472.264H45.954V315.2h3.6V470.817H870.311Z" transform="translate(-45.954 -315.205)" fill="#9ac7d7"/>
    </g>
    <g id="Group_1013" data-name="Group 1013" transform="translate(326.762 75.833)" opacity="0.4">
      <rect id="Rectangle_1834" data-name="Rectangle 1834" width="823.894" height="0.903" fill="#9ac7d7"/>
    </g>
    <g id="Group_1014" data-name="Group 1014" transform="translate(326.762 96.325)" opacity="0.4">
      <rect id="Rectangle_1835" data-name="Rectangle 1835" width="823.894" height="0.903" fill="#9ac7d7"/>
    </g>
    <g id="Group_1015" data-name="Group 1015" transform="translate(326.762 119.57)" opacity="0.4">
      <rect id="Rectangle_1836" data-name="Rectangle 1836" width="823.894" height="0.903" fill="#9ac7d7"/>
    </g>
    <g id="Group_1016" data-name="Group 1016" transform="translate(326.762 141.885)" opacity="0.4">
      <rect id="Rectangle_1837" data-name="Rectangle 1837" width="823.894" height="0.903" fill="#9ac7d7"/>
    </g>
    <g id="Group_1019" data-name="Group 1019" transform="translate(326.762 187.446)" opacity="0.4">
      <rect id="Rectangle_1837-2" data-name="Rectangle 1837" width="823.894" height="0.903" fill="#9ac7d7"/>
    </g>
    <g id="Group_1017" data-name="Group 1017" transform="translate(326.762 165.131)" opacity="0.4">
      <rect id="Rectangle_1838" data-name="Rectangle 1838" width="823.894" height="0.903" fill="#9ac7d7"/>
    </g>
    <text id="_1000" data-name="1000" transform="translate(317 93.617)" fill="#4988a6" font-size="7" font-family="Roboto-Regular, Roboto"><tspan x="-15" y="0">1000</tspan></text>
    <text id="_1300" data-name="1300" transform="translate(317 74.617)" fill="#4988a6" font-size="7" font-family="Roboto-Regular, Roboto"><tspan x="-15" y="0">1300</tspan></text>
    <text id="_700" data-name="700" transform="translate(315 116.617)" fill="#4988a6" font-size="6" font-family="Roboto-Regular, Roboto"><tspan x="-10" y="0">700</tspan></text>
    <text id="_500" data-name="500" transform="translate(315 139.617)" fill="#4988a6" font-size="6" font-family="Roboto-Regular, Roboto"><tspan x="-10" y="0">500</tspan></text>
    <text id="_300" data-name="300" transform="translate(315 162.617)" fill="#4988a6" font-size="6" font-family="Roboto-Regular, Roboto"><tspan x="-10" y="0">300</tspan></text>
    <text id="_100" data-name="100" transform="translate(315 185.617)" fill="#4988a6" font-size="6" font-family="Roboto-Regular, Roboto"><tspan x="-10" y="0">100</tspan></text>
    <text id="_0" data-name="0" transform="translate(317 209.617)" fill="#4988a6" font-size="6" font-family="Roboto-Regular, Roboto"><tspan x="-3" y="0">0</tspan></text>
    <text id="_100-2" data-name="100" transform="translate(343 231.617)" fill="#4988a6" font-size="6" font-family="Roboto-Regular, Roboto"><tspan x="-10" y="0">100</tspan></text>
    <text id="_200" data-name="200" transform="translate(486 231.617)" fill="#4988a6" font-size="6" font-family="Roboto-Regular, Roboto"><tspan x="-10" y="0">200</tspan></text>
    <text id="_300-2" data-name="300" transform="translate(556 231.617)" fill="#4988a6" font-size="6" font-family="Roboto-Regular, Roboto"><tspan x="-10" y="0">300</tspan></text>
    <text id="_400" data-name="400" transform="translate(621 231.617)" fill="#4988a6" font-size="6" font-family="Roboto-Regular, Roboto"><tspan x="-10" y="0">400</tspan></text>
    <text id="_500-2" data-name="500" transform="translate(688 231.617)" fill="#4988a6" font-size="6" font-family="Roboto-Regular, Roboto"><tspan x="-10" y="0">500</tspan></text>
    <text id="_600" data-name="600" transform="translate(758 231.617)" fill="#4988a6" font-size="6" font-family="Roboto-Regular, Roboto"><tspan x="-10" y="0">600</tspan></text>
    <text id="_600-2" data-name="600" transform="translate(826 231.617)" fill="#4988a6" font-size="6" font-family="Roboto-Regular, Roboto"><tspan x="-10" y="0">600</tspan></text>
    <text id="_700-2" data-name="700" transform="translate(893 231.617)" fill="#4988a6" font-size="6" font-family="Roboto-Regular, Roboto"><tspan x="-10" y="0">700</tspan></text>
    <text id="_800" data-name="800" transform="translate(958 231.617)" fill="#4988a6" font-size="6" font-family="Roboto-Regular, Roboto"><tspan x="-10" y="0">800</tspan></text>
    <text id="_900" data-name="900" transform="translate(1118 231.617)" fill="#4988a6" font-size="6" font-family="Roboto-Regular, Roboto"><tspan x="-10" y="0">900</tspan></text>
    <text id="_1000-2" data-name="1000" transform="translate(1147 232.617)" fill="#4988a6" font-size="7" font-family="Roboto-Regular, Roboto"><tspan x="-15" y="0">1000</tspan></text>
    <path id="Path_2098" data-name="Path 2098" d="M55.646,414.5,122.6,429.947,205.493,390.8,285.2,415.526l79.7-23.692H514.754l79.707-50.474,79.706,74.166h70.142L863.216,318.6" transform="translate(288.836 -249.446)" fill="none" stroke="#19b198" stroke-width="1"/>
    <g id="Group_1020" data-name="Group 1020" transform="translate(336.227 90.567)">
      <path id="Path_2099" data-name="Path 2099" d="M53.646,383.079h76.165l82.512-48.414,79.339,96.829L371,359.391h92.033l57.124,46.355h79.339l79.338-23.7L748.651,407.8,867.01,382.74" transform="translate(-51.185 -331.628)" fill="none" stroke="#ff7b69" stroke-width="1"/>
      <path id="Path_2105" data-name="Path 2105" d="M2.7,0A2.7,2.7,0,1,1,0,2.7,2.7,2.7,0,0,1,2.7,0Z" transform="translate(0 48.246)" fill="#ff7b69"/>
      <path id="Path_2104" data-name="Path 2104" d="M2.7,0A2.7,2.7,0,1,1,0,2.7,2.7,2.7,0,0,1,2.7,0Z" transform="translate(23.31 48.246)" fill="#ff7b69"/>
      <path id="Path_2108" data-name="Path 2108" d="M2.7,0A2.7,2.7,0,1,1,0,2.7,2.7,2.7,0,0,1,2.7,0Z" transform="translate(159.793)" fill="#ff7b69"/>
      <circle id="Ellipse_6" data-name="Ellipse 6" cx="2.704" cy="2.704" r="2.704" transform="translate(238.721 97.208)" fill="#30d2d6" stroke="#ff7b69" stroke-width="1"/>
      <path id="Path_2106" data-name="Path 2106" d="M2.7,0A2.7,2.7,0,1,1,0,2.7,2.7,2.7,0,0,1,2.7,0Z" transform="translate(319.502 25.312)" fill="#ff7b69"/>
      <path id="Path_2107" data-name="Path 2107" d="M2.7,0A2.7,2.7,0,1,1,0,2.7,2.7,2.7,0,0,1,2.7,0Z" transform="translate(408.596 25.312)" fill="#ff7b69"/>
      <path id="Path_2102" data-name="Path 2102" d="M2.7,0A2.7,2.7,0,1,1,0,2.7,2.7,2.7,0,0,1,2.7,0Z" transform="translate(470.277 71.229)" fill="#ff7b69"/>
      <path id="Path_2101" data-name="Path 2101" d="M2.7,0A2.7,2.7,0,1,1,0,2.7,2.7,2.7,0,0,1,2.7,0Z" transform="translate(549.58 71.229)" fill="#ff7b69"/>
      <path id="Path_2103" data-name="Path 2103" d="M2.7,0A2.7,2.7,0,1,1,0,2.7,2.7,2.7,0,0,1,2.7,0Z" transform="translate(629.863 47.956)" fill="#ff7b69"/>
      <path id="Path_2100" data-name="Path 2100" d="M2.7,0A2.7,2.7,0,1,1,0,2.7,2.7,2.7,0,0,1,2.7,0Z" transform="translate(693.967 72.802)" fill="#ff7b69"/>
    </g>
    <circle id="Ellipse_13" data-name="Ellipse 13" cx="2.704" cy="2.704" r="2.704" transform="translate(1149.687 67.449)" fill="#19b198"/>
    <circle id="Ellipse_14" data-name="Ellipse 14" cx="2.704" cy="2.704" r="2.704" transform="translate(960.198 163.33)" fill="#19b198"/>
    <circle id="Ellipse_15" data-name="Ellipse 15" cx="2.704" cy="2.704" r="2.704" transform="translate(880.296 87.863)" fill="#19b198"/>
    <circle id="Ellipse_16" data-name="Ellipse 16" cx="2.704" cy="2.704" r="2.704" transform="translate(801.096 140.062)" fill="#19b198"/>
    <circle id="Ellipse_17" data-name="Ellipse 17" cx="2.704" cy="2.704" r="2.704" transform="translate(408.198 177.797)" fill="#19b198"/>
    <circle id="Ellipse_18" data-name="Ellipse 18" cx="2.704" cy="2.704" r="2.704" transform="translate(651.626 140.062)" fill="#19b198"/>
    <circle id="Ellipse_19" data-name="Ellipse 19" cx="2.704" cy="2.704" r="2.704" transform="translate(491.085 138.311)" fill="#19b198"/>
    <circle id="Ellipse_20" data-name="Ellipse 20" cx="2.704" cy="2.704" r="2.704" transform="translate(339.074 161.913)" fill="#19b198"/>
    <circle id="Ellipse_21" data-name="Ellipse 21" cx="2.704" cy="2.704" r="2.704" transform="translate(570.861 164.201)" fill="#19b198"/>
    <rect id="Rectangle_1839" data-name="Rectangle 1839" width="17" height="3" transform="translate(320 249.617) rotate(180)" fill="#19b198"/>
    <path id="Path_6979" data-name="Path 6979" d="M0,0H16V3H0Z" transform="translate(842 249.617) rotate(180)" fill="#ff7b69"/>
    <text id="Lorem_ipsum" data-name="Lorem ipsum" transform="translate(331 240.617)" fill="#959595" font-size="12" font-family="Montserrat-Regular, Montserrat"><tspan x="0" y="12">Lorem ipsum</tspan></text>
    <text id="Lorem_ipsum-2" data-name="Lorem ipsum" transform="translate(847 240.617)" fill="#959595" font-size="12" font-family="Montserrat-Regular, Montserrat"><tspan x="0" y="12">Lorem ipsum</tspan></text>
  </g>
</svg>
