<svg xmlns="http://www.w3.org/2000/svg" xmlns:xlink="http://www.w3.org/1999/xlink" width="591.272" height="353.102" viewBox="0 0 591.272 353.102">
  <defs>
    <linearGradient id="linear-gradient" x1="0.49" y1="0.199" x2="0.501" y2="0.726" gradientUnits="objectBoundingBox">
      <stop offset="0.238" stop-color="#8d12df"/>
      <stop offset="1" stop-color="#3553d5"/>
    </linearGradient>
    <linearGradient id="linear-gradient-2" y1="0.5" x2="1" y2="0.5" gradientUnits="objectBoundingBox">
      <stop offset="0" stop-color="#26e4ba"/>
      <stop offset="1" stop-color="#38a5ea"/>
    </linearGradient>
    <linearGradient id="linear-gradient-3" x1="0.312" y1="0.017" x2="0.91" y2="1.418" gradientUnits="objectBoundingBox">
      <stop offset="0" stop-color="#c64adb"/>
      <stop offset="0.986" stop-color="#53ffff"/>
    </linearGradient>
    <linearGradient id="linear-gradient-4" y1="0.5" x2="1" y2="0.5" gradientUnits="objectBoundingBox">
      <stop offset="0" stop-color="#ff5489"/>
      <stop offset="0.987" stop-color="#ebcb7f"/>
    </linearGradient>
    <linearGradient id="linear-gradient-5" y1="1" x2="1" y2="1" gradientUnits="objectBoundingBox">
      <stop offset="0" stop-color="#78c4f3"/>
      <stop offset="1" stop-color="#bf56dd"/>
    </linearGradient>
    <linearGradient id="linear-gradient-6" y1="1" x2="1" y2="1" gradientUnits="objectBoundingBox">
      <stop offset="0" stop-color="#edc180"/>
      <stop offset="1" stop-color="#fe5e88"/>
    </linearGradient>
    <linearGradient id="linear-gradient-7" y1="1" x2="1" y2="1" gradientUnits="objectBoundingBox">
      <stop offset="0" stop-color="#27dfbd"/>
      <stop offset="1" stop-color="#37a9e8"/>
    </linearGradient>
    <linearGradient id="linear-gradient-8" y1="1" x2="1" y2="1" gradientUnits="objectBoundingBox">
      <stop offset="0" stop-color="#8d12df"/>
      <stop offset="1" stop-color="#3553d5"/>
    </linearGradient>
  </defs>
  <g id="Group_1042" data-name="Group 1042" transform="translate(-1342.356 -794.95)">
    <g id="Group_1040" data-name="Group 1040" transform="translate(1483.454 844.932)">
      <path id="Path_2110" data-name="Path 2110" d="M1505.96,602.114a149.524,149.524,0,1,0,149.524,149.524A149.524,149.524,0,0,0,1505.96,602.114Zm0,262.585a113.061,113.061,0,1,1,113.061-113.061A113.061,113.061,0,0,1,1505.96,864.7Z" transform="translate(-1356.436 -602.114)" fill="#fff" opacity="0.21"/>
      <path id="Path_2111" data-name="Path 2111" d="M1433.512,646.062a112.849,112.849,0,0,0,2.47,175.293l-21.962,29.132A149.237,149.237,0,0,1,1408.2,619.7Z" transform="translate(-1356.436 -583.176)" fill="url(#linear-gradient)"/>
      <path id="Path_2112" data-name="Path 2112" d="M1588.117,683.262a113.285,113.285,0,0,1-181.992,70.272l-21.961,29.2a149.809,149.809,0,0,0,240.871-99.61Z" transform="translate(-1327.113 -515.422)" fill="url(#linear-gradient-2)"/>
      <path id="Path_2113" data-name="Path 2113" d="M1498.787,747.74a114.2,114.2,0,0,0,1.516-18.583,112.9,112.9,0,0,0-33.173-80.089l25.828-25.828a149.315,149.315,0,0,1,43.873,105.917A151.067,151.067,0,0,1,1535.7,747.6Z" transform="translate(-1237.782 -579.367)" fill="url(#linear-gradient-3)"/>
      <path id="Path_2114" data-name="Path 2114" d="M1406.673,665.062a113.268,113.268,0,0,1,152.8,6.753l25.828-25.828a149.791,149.791,0,0,0-203.942-7.345Z" transform="translate(-1330.13 -602.114)" fill="url(#linear-gradient-4)"/>
    </g>
    <text id="_30_" data-name="30%" transform="translate(1793.003 867.861)" fill="#414141" font-size="18" font-family="Roboto-Bold, Roboto" font-weight="700"><tspan x="0" y="0">30%</tspan></text>
    <text id="Spotify" transform="translate(1792.629 903.318)" fill="#414141" font-size="13" font-family="Roboto-Bold, Roboto" font-weight="700"><tspan x="0" y="0">Spotify</tspan></text>
    <text id="Lorem_ipsumsdsd" data-name="Lorem ipsumsdsd" transform="translate(1792.629 914.126)" fill="#959595" font-size="8" font-family="Roboto-Regular, Roboto"><tspan x="0" y="8">Lorem ipsumsdsd</tspan></text>
    <rect id="Rectangle_1856" data-name="Rectangle 1856" width="99.523" height="6.22" transform="translate(1792.629 880.952)" fill="url(#linear-gradient-5)"/>
    <text id="_30_2" data-name="30%" transform="translate(1400.504 811.95)" fill="#414141" font-size="18" font-family="Roboto-Bold, Roboto" font-weight="700"><tspan x="0" y="0">30%</tspan></text>
    <text id="TikTok" transform="translate(1400.757 849.41)" fill="#414141" font-size="13" font-family="Roboto-Bold, Roboto" font-weight="700"><tspan x="0" y="0">TikTok</tspan></text>
    <text id="Lorem_ipsumsdsd-2" data-name="Lorem ipsumsdsd" transform="translate(1400.757 853.997)" fill="#959595" font-size="8" font-family="Roboto-Regular, Roboto"><tspan x="0" y="8">Lorem ipsumsdsd</tspan></text>
    <rect id="Rectangle_1857" data-name="Rectangle 1857" width="99.523" height="4.147" transform="translate(1400.757 827.043)" fill="url(#linear-gradient-6)"/>
    <text id="Lorem_ipsumsdsd-3" data-name="Lorem ipsumsdsd" transform="translate(1763.601 1138.052)" fill="#959595" font-size="8" font-family="Roboto-Regular, Roboto"><tspan x="0" y="8">Lorem ipsumsdsd</tspan></text>
    <text id="Facebook" transform="translate(1763.601 1131.392)" fill="#414141" font-size="13" font-family="Roboto-Bold, Roboto" font-weight="700"><tspan x="0" y="0">Facebook</tspan></text>
    <rect id="Rectangle_1855" data-name="Rectangle 1855" width="99.523" height="6.22" transform="translate(1763.601 1111.098)" fill="url(#linear-gradient-7)"/>
    <text id="_40_" data-name="40%" transform="translate(1763.929 1097.099)" fill="#414141" font-size="18" font-family="Roboto-Bold, Roboto" font-weight="700"><tspan x="0" y="0">40%</tspan></text>
    <text id="Lorem_ipsumsdsd-4" data-name="Lorem ipsumsdsd" transform="translate(1342.702 1061.337)" fill="#959595" font-size="8" font-family="Roboto-Regular, Roboto"><tspan x="0" y="8">Lorem ipsumsdsd</tspan></text>
    <text id="Instagram" transform="translate(1342.702 1050.529)" fill="#414141" font-size="13" font-family="Roboto-Bold, Roboto" font-weight="700"><tspan x="0" y="0">Instagram</tspan></text>
    <rect id="Rectangle_1854" data-name="Rectangle 1854" width="99.523" height="6.22" transform="translate(1342.702 1030.236)" fill="url(#linear-gradient-8)"/>
    <text id="_30_3" data-name="30%" transform="translate(1342.356 1016.192)" fill="#414141" font-size="18" font-family="Roboto-Bold, Roboto" font-weight="700"><tspan x="0" y="0">30%</tspan></text>
  </g>
</svg>
