<svg xmlns="http://www.w3.org/2000/svg" width="46" height="46" viewBox="0 0 46 46">
  <g id="Group_11680" data-name="Group 11680" transform="translate(-378 -243)">
    <circle id="Ellipse_292" data-name="Ellipse 292" cx="23" cy="23" r="23" transform="translate(378 243)" fill="#f87c00"/>
    <path id="Icon_map-convenience-store" data-name="Icon map-convenience-store" d="M21.867,10.344h-.142a1.03,1.03,0,0,0-.139-.191L15.539,3.675a1.983,1.983,0,0,0,.043-.4A1.756,1.756,0,0,0,13.915,1.44h-1.9a1.756,1.756,0,0,0-1.666,1.833,2.021,2.021,0,0,0,.043.4L4.341,10.153a1.08,1.08,0,0,0-.139.191H1.44V14.01H2.488v7.856a2.619,2.619,0,0,0,2.619,2.619h16.76a2.619,2.619,0,0,0,2.619-2.619V14.01h1.048V10.344H21.867ZM12.01,5.106h1.9L14,5.1l4.9,5.247H7.028l4.9-5.247.085.009ZM7.2,21.343a1.048,1.048,0,1,1-2.1,0V15.058a1.048,1.048,0,1,1,2.1,0Zm4.714,0a1.048,1.048,0,0,1-2.1,0V15.058a1.048,1.048,0,1,1,2.1,0Zm5.238,0a1.048,1.048,0,0,1-2.1,0V15.058a1.048,1.048,0,1,1,2.1,0Zm4.714,0a1.048,1.048,0,0,1-2.1,0V15.058a1.048,1.048,0,1,1,2.1,0Z" transform="translate(387.56 252.56)" fill="#fff"/>
  </g>
</svg>
