<svg xmlns="http://www.w3.org/2000/svg" width="46" height="46" viewBox="0 0 46 46">
  <g id="Group_11677" data-name="Group 11677" transform="translate(-378 -243)">
    <circle id="Ellipse_292" data-name="Ellipse 292" cx="23" cy="23" r="23" transform="translate(378 243)" fill="#079130"/>
    <g id="Group_6320" data-name="Group 6320" transform="translate(442.362 669.408)">
      <path id="Path_6972" data-name="Path 6972" d="M-41.374-263.82a18.335,18.335,0,0,1-15.436-8.5,1.437,1.437,0,0,1-.074-1.657,11.35,11.35,0,0,1,8.414-6.148,1.906,1.906,0,0,1,1.44.308,9.62,9.62,0,0,0,11.3.028,2,2,0,0,1,1.505-.331,11.429,11.429,0,0,1,8.437,6.23,1.232,1.232,0,0,1-.1,1.4A18.3,18.3,0,0,1-41.374-263.82Z" transform="translate(0 -118.811)" fill="#fff"/>
      <path id="Path_6973" data-name="Path 6973" d="M8.951-408.823a9.205,9.205,0,0,1-9.161,9.182,9.2,9.2,0,0,1-9.169-9.171,9.194,9.194,0,0,1,9.159-9.178A9.2,9.2,0,0,1,8.951-408.823Z" transform="translate(-41.145 0)" fill="#fff"/>
    </g>
  </g>
</svg>
