<svg xmlns="http://www.w3.org/2000/svg" width="21.659" height="23" viewBox="0 0 21.659 23">
  <g id="Group_1053" data-name="Group 1053" transform="translate(-58 -300)">
    <path id="Path_244" data-name="Path 244" d="M927.675-3780.069a2.241,2.241,0,0,1-2.25-2.342,2.248,2.248,0,0,1,2.492-2.134.52.52,0,0,0,.508-.168q1.335-1.426,2.688-2.835a.424.424,0,0,0,.13-.466,2.224,2.224,0,0,1,.87-2.492,2.27,2.27,0,0,1,2.5-.04,2.223,2.223,0,0,1,.958,2.421.4.4,0,0,0,.164.455q.963.773,1.911,1.563a.364.364,0,0,0,.471.07,2.08,2.08,0,0,1,2.022.011.375.375,0,0,0,.475-.056c.626-.487,1.254-.972,1.9-1.433a.416.416,0,0,0,.17-.553,2.232,2.232,0,0,1,1.565-2.807,2.254,2.254,0,0,1,2.762,1.594,2.253,2.253,0,0,1-1.7,2.773,2,2,0,0,1-1.317-.121.434.434,0,0,0-.52.069q-.988.777-2,1.517a.406.406,0,0,0-.174.488,2.216,2.216,0,0,1-.929,2.39,2.248,2.248,0,0,1-2.533-.022,2.216,2.216,0,0,1-.883-2.41.426.426,0,0,0-.177-.494c-.62-.495-1.237-.993-1.843-1.5a.389.389,0,0,0-.51-.066,2.09,2.09,0,0,1-1.943.047.355.355,0,0,0-.49.105c-.765.821-1.531,1.642-2.323,2.438-.233.234-.2.377-.049.636A2.231,2.231,0,0,1,927.675-3780.069Zm10.544-3.957a.88.88,0,0,0,.875.888.9.9,0,0,0,.918-.9.92.92,0,0,0-.886-.894A.891.891,0,0,0,938.219-3784.026Zm7.507-4.7a.9.9,0,0,0-.894-.879.9.9,0,0,0-.9.919.891.891,0,0,0,.936.875A.9.9,0,0,0,945.726-3788.725Zm-11.443.084a.875.875,0,0,0-.9-.906.894.894,0,0,0-.895.875.92.92,0,0,0,.909.917A.9.9,0,0,0,934.283-3788.641Zm-6.593,7.219a.882.882,0,0,0,.877-.886.905.905,0,0,0-.911-.908.911.911,0,0,0-.879.9A.889.889,0,0,0,927.69-3781.422Z" transform="translate(-867.421 4090.951)" fill="#fff"/>
    <path id="Path_245" data-name="Path 245" d="M1116.557-3686.248c0-1.9-.013-3.8,0-5.7a2.182,2.182,0,0,1,2.863-2.168,2.092,2.092,0,0,1,1.49,1.744,3.808,3.808,0,0,1,.043.625c0,3.77,0,7.54.011,11.31,0,.41-.1.527-.518.517-1.166-.029-2.334-.021-3.5,0-.315,0-.4-.088-.4-.4C1116.563-3682.3,1116.556-3684.273,1116.557-3686.248Zm3.049-.522c0-1.7.005-3.41,0-5.115,0-.625-.334-.989-.858-.985s-.834.366-.835,1c0,3.395,0,6.79-.007,10.184,0,.3.061.44.391.409a4.616,4.616,0,0,1,.9,0c.346.036.426-.1.423-.426C1119.6-3683.39,1119.606-3685.08,1119.606-3686.77Z" transform="translate(-1041.384 4002.92)" fill="#fff"/>
    <path id="Path_246" data-name="Path 246" d="M993.516-3666.967c0,1.661-.007,3.321.007,4.982,0,.306-.072.41-.394.4-1.211-.019-2.424-.016-3.635,0-.285,0-.387-.065-.386-.369.01-3.292,0-6.583.011-9.874a2.184,2.184,0,0,1,2.231-2.255,2.174,2.174,0,0,1,2.163,2.266C993.523-3670.2,993.515-3668.583,993.516-3666.967Zm-1.351-.6q0-.628,0-1.257c0-1.017.007-2.034-.005-3.051a.82.82,0,0,0-.794-.858.845.845,0,0,0-.895.813,3.883,3.883,0,0,0-.007.4q0,3.657,0,7.314c0,.4-.171.922.071,1.17.263.271.8.04,1.2.095.384.052.432-.132.429-.457C992.156-3664.782,992.165-3666.173,992.165-3667.564Z" transform="translate(-925.387 3984.577)" fill="#fff"/>
    <path id="Path_247" data-name="Path 247" d="M1057.595-3627.593c0,1.031-.009,2.063.006,3.094,0,.292-.048.421-.384.415-1.225-.02-2.452-.015-3.677,0-.278,0-.354-.087-.353-.357.01-2.063-.01-4.126.012-6.188a2.207,2.207,0,0,1,2.241-2.252,2.206,2.206,0,0,1,2.153,2.286C1057.6-3629.6,1057.594-3628.594,1057.595-3627.593Zm-1.352-.591c0-.792,0-1.583,0-2.375a.863.863,0,0,0-.823-.973.883.883,0,0,0-.872.982c-.008,1.583,0,3.166-.008,4.749,0,.261.057.383.346.364a8.525,8.525,0,0,1,1.03,0c.253.014.337-.071.333-.327C1056.234-3626.571,1056.243-3627.377,1056.243-3628.184Z" transform="translate(-983.712 3947.081)" fill="#fff"/>
    <path id="Path_248" data-name="Path 248" d="M925.942-3606c0-.673-.008-1.346,0-2.019a2.185,2.185,0,0,1,2.222-2.213,2.176,2.176,0,0,1,2.175,2.211c.011,1.391,0,2.781.009,4.172,0,.282-.062.386-.367.382q-1.839-.026-3.678,0c-.3,0-.377-.094-.369-.38C925.954-3604.563,925.942-3605.282,925.942-3606Zm3.051-.573c0-.478.009-.957,0-1.434a.829.829,0,0,0-.828-.872.828.828,0,0,0-.867.879c-.013.956,0,1.913-.008,2.869,0,.227.056.324.3.311a9.011,9.011,0,0,1,1.03,0c.282.018.4-.057.383-.365C928.975-3605.645,928.994-3606.109,928.994-3606.573Z" transform="translate(-867.889 3926.462)" fill="#fff"/>
  </g>
</svg>
