<svg xmlns="http://www.w3.org/2000/svg" width="20.622" height="20.667" viewBox="0 0 20.622 20.667">
  <g id="Group_1056" data-name="Group 1056" transform="translate(-580.913 -392.497)">
    <path id="Path_259" data-name="Path 259" d="M647.82,454.09a5.315,5.315,0,1,1-5.343,5.315A5.315,5.315,0,0,1,647.82,454.09Zm.133,2.194c-.518,0-.566.006-.534.211.069.448-.18.539-.537.645a1.435,1.435,0,0,0-1.1,1.426c.01.638.375,1.059,1.142,1.283.349.1.708.167,1.06.259.154.04.357.085.352.278-.006.236-.238.23-.4.244a2.854,2.854,0,0,1-1.489-.3c-.171-.082-.246-.067-.338.111-.484.941-.421,1.077.645,1.288a1.076,1.076,0,0,0,.277.053c.33-.027.43.135.383.433-.04.249.064.346.314.317a2.672,2.672,0,0,1,.4,0c.141,0,.259-.031.225-.2-.091-.445.147-.583.53-.709a1.413,1.413,0,0,0,1.019-1.4c-.02-.617-.385-1.028-1.136-1.245-.349-.1-.709-.161-1.061-.253-.163-.042-.389-.07-.358-.3.028-.21.245-.232.417-.249a2.519,2.519,0,0,1,1.22.226c.12.049.217.129.324-.06.507-.895.419-1.107-.578-1.3a.357.357,0,0,0-.08-.011c-.224.009-.33-.093-.292-.318C648.42,456.339,648.256,456.216,647.953,456.284Z" transform="translate(-56.575 -56.602)" fill="#fff"/>
    <path id="Path_260" data-name="Path 260" d="M642.514,561.721c.122.139.2.226.279.317a6.526,6.526,0,0,0,10.445-.553c.21-.316.342-.321.638-.13,1.3.842,2.622,1.658,3.933,2.488.109.069.252.107.314.279l-6.5,4.1c0-.524-.017-.987.006-1.447.015-.288-.08-.361-.362-.358-1.539.013-3.078.011-4.617.005A4.113,4.113,0,0,1,642.514,561.721Z" transform="translate(-56.588 -155.058)" fill="#fff"/>
    <path id="Path_261" data-name="Path 261" d="M596.513,398.875c-.138-.022-.175-.154-.248-.241a6.531,6.531,0,0,0-10.47.549c-.194.292-.307.328-.6.134-1.3-.845-2.62-1.659-3.931-2.488a.905.905,0,0,1-.347-.262c.4-.312,6.16-3.922,6.507-4.072,0,.416,0,.814,0,1.213.006.578-.083.526.508.527,1.471,0,2.942-.005,4.413,0a4.117,4.117,0,0,1,4.213,4.571C596.553,398.831,596.529,398.851,596.513,398.875Z" fill="#fff"/>
  </g>
</svg>
