<svg xmlns="http://www.w3.org/2000/svg" width="17.679" height="18.629" viewBox="0 0 17.679 18.629">
  <path id="Icon_awesome-linkedin-in" data-name="Icon awesome-linkedin-in" d="M3.957,18.63H.292V6.192H3.957ZM2.123,4.5A2.2,2.2,0,0,1,0,2.237,2.182,2.182,0,0,1,2.123,0,2.182,2.182,0,0,1,4.245,2.237,2.2,2.2,0,0,1,2.123,4.5ZM17.675,18.63H14.018V12.575c0-1.443-.028-3.293-1.906-3.293-1.906,0-2.2,1.568-2.2,3.189V18.63H6.253V6.192H9.769v1.7H9.82A3.821,3.821,0,0,1,13.288,5.88c3.71,0,4.391,2.574,4.391,5.917V18.63Z" transform="translate(0 -0.001)" fill="#fff"/>
</svg>
