<svg xmlns="http://www.w3.org/2000/svg" width="193.55" height="56.594" viewBox="0 0 193.55 56.594">
  <g id="Group_6" data-name="Group 6" transform="translate(2800.441 -1995.358)">
    <path id="Path_220" data-name="Path 220" d="M-2704.656,2001.214c.312-1.083.592-2.177.943-3.248a3.7,3.7,0,0,1,2.69-2.471c.106-.03.253.027.3-.137h.245a1.253,1.253,0,0,0,.856,0h.122c1.987.524,3.129,2.164,4.5,3.466,5.633,5.342,11.224,10.728,16.829,16.1a2.467,2.467,0,0,1,.191.232c-.264.144-.475-.027-.683-.135-3.2-1.656-6.393-3.335-9.586-5.008q-3.058-1.6-6.12-3.2-4.962-2.576-9.9-5.19C-2704.441,2001.537-2704.674,2001.485-2704.656,2001.214Z" transform="translate(-84.058)" fill="#0aa370"/>
    <path id="Path_221" data-name="Path 221" d="M-2800.441,2273.929a31.85,31.85,0,0,0,1.1-3.569c.948-3.2,1.871-6.408,2.806-9.613a2.319,2.319,0,0,1,.115-.272.953.953,0,0,1,.212.8q.01,8.2,0,16.4a.952.952,0,0,1-.213.8,3.77,3.77,0,0,1-3.9-2.883.968.968,0,0,0-.117-.193Z" transform="translate(0 -232.661)" fill="#0aa370"/>
    <path id="Path_222" data-name="Path 222" d="M-2669.687,1995.358a.7.7,0,0,1-.856,0Z" transform="translate(-113.996)" fill="#4cbc96"/>
    <path id="Path_223" data-name="Path 223" d="M-2767.6,2077.2q0-9,0-18,.008-4.057.015-8.114,0-8.053,0-16.106a3.809,3.809,0,0,1,5.513-3.458,22.934,22.934,0,0,0,2.177,1.078c.745.411,1.483.837,2.237,1.231q7.1,3.713,14.215,7.415,4.836,2.525,9.667,5.058c.179.093.372.159.558.237,1.531.963,3.179,1.709,4.768,2.565,1.233.665,2.482,1.3,3.721,1.952,2.284,1.205,2.938,3.056,1.931,5.453a1.523,1.523,0,0,1-.754,1.111c-1.543,1.088-3.126,2.119-4.709,3.15a.434.434,0,0,1-.29.073c-1.782-1.634-3.506-3.332-5.313-4.939-.168-.149-.339-.292-.518-.428a4.215,4.215,0,0,0-1.322-.968c-2.77-1.423-5.517-2.889-8.282-4.32-2.1-1.086-4.173-2.209-6.283-3.27a3.118,3.118,0,0,0-.67-.292,1.4,1.4,0,0,0-1.785,1.261,6.044,6.044,0,0,0-.014.61q0,8.752,0,17.5c0,1.352.319,1.716,1.663,1.913a34.448,34.448,0,0,0,2.547,3.465,12.006,12.006,0,0,1,1.26,1.771q-6.767,4.485-13.532,8.972a5.732,5.732,0,0,1-2.756,1.205,3.829,3.829,0,0,1-4.029-3.631C-2767.593,2078.865-2767.594,2078.031-2767.6,2077.2Z" transform="translate(-28.821 -31.388)" fill="#3f567f"/>
    <path id="Path_224" data-name="Path 224" d="M-1851.831,2044.024a18.439,18.439,0,0,1,11.19,3.407c.478.347.5.556.154,1.023-1.129,1.518-2.216,3.067-3.287,4.627-.271.4-.432.475-.874.183a14.091,14.091,0,0,0-7.345-2.539,4.307,4.307,0,0,0-2.257.4,1.648,1.648,0,0,0-.139,2.931,12.413,12.413,0,0,0,4.031,1.343,34.376,34.376,0,0,1,6.384,2.013c6.751,3.028,5.385,11.558,1.133,14.387a13.76,13.76,0,0,1-7.188,2.238,21.333,21.333,0,0,1-12.171-2.906,17.864,17.864,0,0,1-2.277-1.641c-.214-.179-.255-.3-.056-.529,1.346-1.581,2.692-3.162,4-4.772.311-.382.49-.181.734,0a15.086,15.086,0,0,0,6.925,3,8.707,8.707,0,0,0,3.875-.083,2.189,2.189,0,0,0,1.2-.789,1.629,1.629,0,0,0-.391-2.317,9.843,9.843,0,0,0-3.408-1.277,46.286,46.286,0,0,1-5.982-1.695,11.967,11.967,0,0,1-3.14-1.734,7.25,7.25,0,0,1-2.6-6.928c.478-4.136,3.17-6.941,7.478-7.952.435-.1.878-.176,1.319-.252A14.888,14.888,0,0,1-1851.831,2044.024Z" transform="translate(-821.219 -42.706)" fill="#3f567f"/>
    <path id="Path_225" data-name="Path 225" d="M-1633.169,2073.894a20.489,20.489,0,0,1-13.076-4.481c-.29-.238-.377-.381-.1-.7q1.968-2.294,3.888-4.63c.28-.341.456-.311.776-.069a14.615,14.615,0,0,0,9.412,3.164,4.2,4.2,0,0,0,1.943-.461,1.662,1.662,0,0,0,.125-2.97,12,12,0,0,0-3.788-1.308,32.49,32.49,0,0,1-6.567-2.05,7.39,7.39,0,0,1-4.475-5.137,8.9,8.9,0,0,1,6.074-10.634,17.894,17.894,0,0,1,8.094-.591,17.307,17.307,0,0,1,8.377,3.265c.4.295.508.479.166.939-1.179,1.582-2.308,3.2-3.431,4.824-.218.315-.346.318-.652.115a14.352,14.352,0,0,0-7.507-2.615,4.617,4.617,0,0,0-1.978.289,1.7,1.7,0,0,0-1.178,1.493,1.651,1.651,0,0,0,.986,1.679,17.818,17.818,0,0,0,4.361,1.339,32.813,32.813,0,0,1,5.85,1.885c6.711,2.961,5.5,11.545,1.07,14.452a14.411,14.411,0,0,1-7.635,2.2C-1632.679,2073.9-1632.924,2073.894-1633.169,2073.894Z" transform="translate(-1012.664 -42.535)" fill="#3f567f"/>
    <path id="Path_226" data-name="Path 226" d="M-2102.491,2048c3.049,0,5.983.006,8.917-.007.392,0,.454.29.585.522q2.632,4.638,5.254,9.283c.128.225.264.446.427.719l3.705-6.5q1.026-1.8,2.051-3.6c.132-.232.243-.424.584-.422,2.813.017,5.625.011,8.438.014a.682.682,0,0,1,.167.045c.016.238-.151.381-.252.546q-5.2,8.5-10.42,17a1.95,1.95,0,0,0-.3,1.086c.011,3.235,0,6.469.017,9.7,0,.5-.075.7-.652.69-2.3-.039-4.606-.03-6.909,0-.466.005-.575-.128-.573-.58.02-3.235.006-6.47.017-9.7a1.968,1.968,0,0,0-.3-1.086q-5.18-8.483-10.338-16.979C-2102.194,2048.517-2102.311,2048.309-2102.491,2048Z" transform="translate(-612.507 -46.189)" fill="#3f567f"/>
    <path id="Path_227" data-name="Path 227" d="M-1415.357,2047.974c4.037,0,8.073.01,12.11-.012.51,0,.645.126.637.635-.031,1.973-.024,3.948,0,5.922,0,.423-.11.55-.542.547-2.528-.02-5.056,0-7.584-.022-.486-.005-.6.132-.6.605.016,6.9,0,13.8.023,20.7,0,.546-.122.713-.693.7-2.262-.036-4.526-.031-6.789,0-.516.007-.636-.143-.635-.643.016-6.878,0-13.757.026-20.635,0-.6-.155-.736-.738-.728-2.487.034-4.974,0-7.461.027-.495.005-.561-.183-.557-.6.018-1.974.022-3.948,0-5.922-.006-.452.11-.582.576-.58C-1423.511,2047.982-1419.434,2047.974-1415.357,2047.974Z" transform="translate(-1204.281 -46.164)" fill="#3f567f"/>
    <path id="Path_228" data-name="Path 228" d="M-2628.959,2247.505a24.542,24.542,0,0,1-1.857-2.3c-.595-.71-1.154-1.452-1.706-2.2-.121-.164-.465-.347-.115-.622a4.661,4.661,0,0,1,1.241-.859c1.668-1.127,3.352-2.23,5.023-3.354,3.088-2.076,6.227-4.075,9.315-6.151a2.313,2.313,0,0,0,1.1-1.328c.079-.306-.12-.6.022-.9a3.728,3.728,0,0,1,1.08.872c1.465,1.318,2.885,2.685,4.321,4.036.132.124.284.239.294.446-.065.3-.33.4-.544.543-3.555,2.4-7.171,4.716-10.735,7.1-.27.181-.574.291-.851.455-1.893,1.1-3.659,2.4-5.507,3.575C-2628.239,2247.057-2628.6,2247.28-2628.959,2247.505Z" transform="translate(-147.127 -205.74)" fill="#142448"/>
    <path id="Path_229" data-name="Path 229" d="M-2547.706,2250.907c1.327-1.035,2.773-1.894,4.168-2.829,2.645-1.771,5.306-3.517,7.961-5.274,1.384-.917,2.76-1.844,4.154-2.744a4.939,4.939,0,0,0,1.6-1.542,4.835,4.835,0,0,1,1.809,2.526,3.806,3.806,0,0,1-2.647,4.583q-4.473,1.413-8.954,2.8-3.78,1.179-7.563,2.351C-2547.349,2250.832-2547.529,2250.865-2547.706,2250.907Z" transform="translate(-221.795 -213.392)" fill="#0aa370"/>
    <path id="Path_230" data-name="Path 230" d="M-2303.311,2317.579l2.225-4.867c.355-.775.745-1.537,1.051-2.331a.79.79,0,0,1,.91-.576c.98.036.981.01.981,1.01,0,3.4-.012,6.8.013,10.2,0,.523-.1.7-.66.677-1.044-.048-1.046-.012-1.046-1.084v-6.775a1.016,1.016,0,0,0-.361.57c-.777,1.72-1.556,3.439-2.3,5.174a.627.627,0,0,1-.727.454c-.38-.029-.708.035-.919-.462-.706-1.663-1.483-3.3-2.235-4.939-.08-.176-.174-.345-.278-.55a.9.9,0,0,0-.1.633c-.006,2.116-.015,4.232.005,6.349,0,.453-.078.646-.594.631-1.138-.033-1.139,0-1.139-1.115,0-3.358.016-6.716-.015-10.073-.005-.583.182-.684.719-.7a1.166,1.166,0,0,1,1.32.82C-2305.48,2312.911-2304.41,2315.168-2303.311,2317.579Z" transform="translate(-431.717 -275.942)" fill="#0aa370"/>
    <path id="Path_231" data-name="Path 231" d="M-2125,2345.177a5.424,5.424,0,0,1-3.494-1.01c-.272-.2-.321-.331-.088-.615.7-.851.684-.864,1.63-.37a3.99,3.99,0,0,0,2.955.385,1.1,1.1,0,0,0,.941-1.111c-.064-.615-.531-.774-1.039-.838-.767-.1-1.541-.143-2.306-.25a1.968,1.968,0,0,1-1.956-1.958,2.337,2.337,0,0,1,1.5-2.585,5.963,5.963,0,0,1,5.106.579c.256.147.286.249.085.5-.72.883-.71.9-1.752.465a4.209,4.209,0,0,0-2.091-.3,1.447,1.447,0,0,0-.888.357.775.775,0,0,0,.33,1.4,14.442,14.442,0,0,0,1.694.2c.263.029.528.045.788.09,1.484.257,2.122.905,2.163,2.185a2.434,2.434,0,0,1-2.049,2.745A5.724,5.724,0,0,1-2125,2345.177Z" transform="translate(-589.475 -299.373)" fill="#0aa370"/>
    <path id="Path_232" data-name="Path 232" d="M-2195.954,2344.928a3.008,3.008,0,0,1-4.38.078,2.976,2.976,0,0,1-.736-1.957c-.032-1.768-.017-3.536-.031-5.3,0-.272.063-.385.371-.4,1.366-.08,1.365-.092,1.365,1.292,0,1.28,0,2.561,0,3.841a1.707,1.707,0,0,0,2.263,1.8,1.409,1.409,0,0,0,1.177-1.488c.011-1.626.022-3.252-.008-4.878-.009-.473.143-.574.588-.567,1.184.022,1.184,0,1.184,1.184,0,2.236-.016,4.472.012,6.707.006.5-.154.664-.621.594a1.629,1.629,0,0,0-.244,0C-2195.889,2345.823-2195.889,2345.823-2195.954,2344.928Z" transform="translate(-525.968 -300.092)" fill="#0aa370"/>
    <path id="Path_233" data-name="Path 233" d="M-2017.3,2340.781c0,.2,0,.407,0,.611a1.865,1.865,0,0,0,1,1.935,2.209,2.209,0,0,0,2.514-.319c.388-.344.585-.252.857.044.027.03.059.056.089.084.806.76.791.949-.232,1.488a4.706,4.706,0,0,1-4.072.173,2.909,2.909,0,0,1-1.8-2.366,9.934,9.934,0,0,1-.065-2.8c.237-2.224,1.89-3.441,4.237-3.149a4.091,4.091,0,0,1,2.279.932c.3.264.416.486,0,.74a1.115,1.115,0,0,0-.273.243c-.36.443-.659.507-1.172.1a2.188,2.188,0,0,0-2.426-.174,1.9,1.9,0,0,0-.936,1.971C-2017.295,2340.456-2017.3,2340.619-2017.3,2340.781Z" transform="translate(-685.705 -299.327)" fill="#0aa370"/>
    <path id="Path_234" data-name="Path 234" d="M-2049.925,2341.774c0,1.219-.014,2.438.008,3.657.007.4-.082.57-.532.566-1.2-.009-1.2.013-1.2-1.168,0-2.235.01-4.469-.009-6.7,0-.452.08-.643.594-.627,1.14.035,1.141,0,1.141,1.168Z" transform="translate(-657.114 -300.254)" fill="#0ca471"/>
    <path id="Path_235" data-name="Path 235" d="M-2049.894,2310.812c-.015,1,.129.859-.941.86-.919,0-.785.118-.786-.951,0-.908-.11-.761.969-.771C-2049.894,2309.943-2049.894,2309.949-2049.894,2310.812Z" transform="translate(-657.144 -276.077)" fill="#0fa572"/>
    <path id="Path_236" data-name="Path 236" d="M-2629.118,2165.015a1.648,1.648,0,0,1-.844,2.206q-7.421,4.918-14.843,9.832a3.334,3.334,0,0,1-1.01.552c-1.325.1-1.961-.492-1.961-1.832,0-6,.038-11.99-.03-17.985a1.7,1.7,0,0,1,2.593-1.557c4.983,2.653,10,5.249,15,7.863A2.328,2.328,0,0,1-2629.118,2165.015Z" transform="translate(-133.948 -140.956)" fill="#fefefe"/>
    <path id="Path_237" data-name="Path 237" d="M-2289.091,2064.2a10.191,10.191,0,0,0-4-2.347c.443-.252.812-.458,1.177-.67a6.9,6.9,0,0,0,.6-11.252,10.318,10.318,0,0,0-6.015-1.907c-5.217-.064-10.435-.026-15.652-.049-.446,0-.49.178-.49.538q.01,13.977-.006,27.954c0,.511.184.592.634.588,2.344-.019,4.688.01,7.032-.014,3.137-.032,6.278.143,9.41-.107a12.075,12.075,0,0,0,6.114-2.053C-2286.6,2072.3-2286.747,2066.575-2289.091,2064.2Zm-16.479-9.344c0-.221,0-.394.31-.383a56.868,56.868,0,0,1,6.285.137,2.328,2.328,0,0,1,2.233,2.609,2.086,2.086,0,0,1-1.377,1.913,5.613,5.613,0,0,1-2.269.4c-.652.011-1.3,0-1.956,0-.937,0-1.875-.01-2.812.006-.316.006-.421-.093-.418-.414C-2305.56,2057.7-2305.566,2056.279-2305.57,2054.855Zm8.519,15.271a5.541,5.541,0,0,1-2.2.4c-.854.007-1.709,0-2.563,0-1.078,0-2.157-.014-3.235.007-.376.007-.533-.07-.526-.494.027-1.462.021-2.924,0-4.386,0-.352.1-.441.447-.438,2.055.015,4.11,0,6.165.013a5.085,5.085,0,0,1,1.9.382,2.28,2.28,0,0,1,1.545,2.255A2.3,2.3,0,0,1-2297.052,2070.126Z" transform="translate(-427.349 -46.175)" fill="#3f567f"/>
  </g>
</svg>
